<?xml version="1.0" standalone="no"?>
<!DOCTYPE svg PUBLIC "-//W3C//DTD SVG 20010904//EN"
 "http://www.w3.org/TR/2001/REC-SVG-20010904/DTD/svg10.dtd">
<svg version="1.0" xmlns="http://www.w3.org/2000/svg"
 width="1024.000000pt" height="1024.000000pt" viewBox="0 0 1024.000000 1024.000000"
 preserveAspectRatio="xMidYMid meet">

<g transform="translate(0.000000,1024.000000) scale(0.100000,-0.100000)"
fill="#ffffff" stroke="none">
<path d="M0 6680 l0 -3559 26 -25 c15 -13 38 -30 53 -38 14 -7 60 -35 102 -63
42 -27 92 -59 110 -69 136 -79 227 -127 258 -138 26 -8 192 -12 616 -12 556
-1 582 -2 630 -21 88 -35 160 -91 205 -158 14 -20 28 -37 32 -37 4 0 15 -14
23 -31 9 -17 19 -28 22 -25 9 8 -17 86 -39 118 -10 14 -18 29 -18 33 0 22 -83
129 -165 211 -86 88 -97 96 -122 89 -65 -16 -120 -17 -136 -1 -8 9 -20 16 -26
16 -15 0 -44 47 -36 60 12 19 84 11 137 -16 38 -19 48 -28 37 -35 -9 -6 4 -9
38 -9 28 0 55 5 58 10 16 26 103 -3 153 -50 62 -59 171 -261 179 -333 3 -28 9
-56 13 -62 5 -5 11 -26 14 -46 3 -20 8 -43 12 -52 4 -11 1 -17 -9 -17 -9 0
-19 -9 -22 -20 -3 -11 -13 -20 -21 -20 -11 0 -10 -5 5 -21 15 -16 23 -19 37
-11 13 7 24 6 40 -4 12 -8 41 -15 65 -16 72 -2 309 13 340 22 20 6 29 5 29 -3
0 -8 3 -8 8 -2 12 17 60 10 84 -12 35 -31 158 -102 200 -115 21 -6 35 -14 33
-19 -3 -4 -26 -1 -53 6 -67 19 -287 32 -496 29 -192 -3 -209 -7 -219 -59 -6
-34 27 -42 203 -50 342 -14 731 -34 785 -40 22 -2 96 -7 165 -11 122 -6 173
-14 94 -14 -22 0 -46 -6 -52 -12 -10 -10 -15 -10 -21 1 -7 11 -9 11 -13 0 -4
-12 -8 -11 -24 1 -17 13 -18 13 -8 0 9 -12 8 -18 -4 -30 -14 -13 -15 -13 -10
1 4 9 1 16 -8 16 -7 0 -11 -4 -8 -8 2 -4 -16 -7 -40 -7 -24 0 -55 -6 -68 -12
-19 -10 -21 -10 -10 1 20 22 13 30 -12 14 -19 -13 -25 -13 -29 -3 -4 10 -6 10
-6 1 -1 -19 -28 -16 -41 5 -10 15 -11 15 -7 -5 3 -15 1 -20 -9 -16 -8 3 -14
10 -14 15 0 7 -5 6 -13 -1 -9 -7 -24 -8 -45 -2 -23 7 -30 6 -26 -4 4 -9 -3
-11 -23 -7 -15 2 -45 5 -65 5 -21 0 -38 4 -38 9 0 5 -7 2 -16 -6 -11 -12 -20
-13 -34 -6 -13 7 -21 7 -26 -1 -4 -8 -9 -7 -15 2 -8 12 -10 12 -18 0 -6 -9
-11 -10 -15 -2 -11 17 -29 13 -22 -5 6 -17 -6 -12 -37 14 -15 13 -17 13 -12 1
4 -10 -2 -14 -20 -14 -17 0 -24 4 -20 14 4 10 -2 9 -21 -4 -23 -15 -26 -15
-21 -2 4 10 1 15 -6 12 -7 -2 -25 -6 -41 -10 -26 -5 -28 -4 -17 9 15 18 1 22
-16 5 -8 -8 -17 -8 -33 1 -20 11 -22 10 -17 -4 6 -15 4 -15 -19 1 -23 14 -27
15 -41 1 -13 -14 -19 -14 -41 -2 -24 12 -27 12 -34 -6 -4 -11 -10 -20 -12 -20
-3 0 -2 8 1 18 6 15 5 15 -10 3 -16 -12 -17 -12 -11 5 4 10 4 16 -1 12 -4 -4
-14 -3 -22 3 -8 8 -13 8 -13 1 0 -6 5 -12 11 -14 7 -2 5 -9 -5 -17 -14 -12
-16 -12 -11 1 4 9 -1 18 -11 22 -12 5 -15 2 -10 -9 4 -12 2 -13 -12 -7 -9 5
-23 7 -30 5 -6 -3 -12 0 -12 5 0 6 6 12 12 15 7 2 10 7 7 11 -4 4 -14 0 -23
-9 -9 -9 -16 -12 -16 -5 0 6 -5 8 -10 5 -6 -3 -10 -2 -10 3 0 5 -7 9 -14 9 -8
0 -15 -3 -14 -6 3 -26 -3 -31 -18 -17 -8 9 -20 16 -25 16 -6 0 -7 5 -3 12 5 7
3 8 -6 3 -10 -6 -9 -11 5 -21 16 -12 15 -13 -14 -9 -18 2 -39 9 -47 16 -11 9
-14 9 -14 -1 0 -10 -3 -10 -15 0 -13 11 -14 10 -8 -6 5 -15 4 -17 -8 -8 -8 6
-23 14 -34 17 -19 7 -19 6 -3 -7 26 -19 22 -31 -4 -14 -40 26 -58 29 -51 10 6
-15 5 -15 -10 -3 -15 12 -17 12 -12 -1 4 -9 0 -15 -9 -15 -8 0 -13 4 -9 9 3 6
-3 9 -13 7 -11 -1 -27 1 -36 6 -10 4 -25 4 -34 1 -13 -5 -14 -9 -4 -21 11 -13
10 -14 -3 -9 -8 3 -25 0 -37 -6 -18 -10 -21 -10 -14 2 6 11 5 11 -8 0 -13 -10
-19 -10 -32 3 -15 15 -16 15 -17 -7 0 -22 -1 -22 -9 -3 -8 19 -9 19 -9 1 -1
-16 -3 -17 -17 -5 -15 12 -16 11 -10 -11 7 -24 6 -24 -8 -6 -15 18 -16 18 -16
2 0 -10 -4 -14 -12 -10 -8 5 -9 2 -5 -10 5 -14 3 -15 -13 -6 -13 7 -21 7 -26
-2 -4 -7 -3 -8 4 -4 8 5 10 1 5 -9 -5 -13 -7 -14 -14 -3 -8 12 -13 4 -10 -15
0 -4 -2 -6 -6 -6 -20 3 -26 -2 -13 -11 13 -8 13 -10 -1 -10 -16 0 -60 -49 -72
-80 -3 -10 -6 -10 -6 -2 -2 22 45 87 111 153 121 122 276 172 539 172 l145 0
-22 25 c-13 13 -30 46 -40 74 -9 27 -38 96 -65 153 -42 89 -57 111 -116 164
-37 33 -104 79 -148 101 -124 63 -177 69 -626 70 -472 0 -469 1 -322 -115 102
-81 212 -200 270 -291 26 -42 62 -95 80 -119 18 -23 30 -45 27 -47 -2 -3 2
-11 11 -18 8 -7 15 -17 15 -22 0 -12 -16 4 -60 62 -48 63 -286 298 -356 352
-72 55 -274 188 -286 188 -5 0 -32 15 -61 33 -29 18 -77 45 -107 61 -30 16
-69 40 -86 53 -17 13 -36 23 -41 23 -6 0 -16 7 -24 16 -7 8 -36 31 -64 50 -29
19 -64 45 -79 59 -15 13 -35 29 -46 35 -19 10 -19 4 -17 -361 l2 -372 130 -29
c252 -56 611 -147 719 -182 60 -20 111 -35 112 -33 2 2 -13 9 -32 16 -28 10
-35 17 -31 33 5 16 2 19 -14 15 -11 -3 -19 0 -19 7 0 6 -9 18 -21 26 -25 18
-44 50 -29 50 5 0 10 -7 10 -15 0 -8 8 -15 19 -15 22 0 44 -23 33 -35 -4 -5
-1 -5 6 -1 17 10 44 -18 31 -31 -7 -7 -5 -12 6 -17 9 -3 13 -2 10 4 -3 6 -1
10 4 10 6 0 11 -6 11 -14 0 -8 9 -18 20 -21 11 -4 18 -11 15 -16 -4 -5 0 -9 7
-9 7 0 51 -19 97 -42 90 -45 204 -145 236 -207 13 -27 19 -31 27 -20 8 11 9
11 5 -2 -5 -15 23 -113 37 -126 3 -3 6 -19 6 -34 0 -22 -4 -26 -20 -22 -19 5
-20 6 -3 19 14 11 14 14 3 12 -8 -2 -14 3 -12 11 2 8 -3 11 -12 8 -12 -5 -13
-1 -6 18 7 19 6 23 -6 18 -8 -3 -20 0 -28 6 -7 6 -15 9 -17 6 -3 -2 -5 4 -5
15 0 10 5 16 11 12 5 -3 4 2 -4 11 -7 9 -18 14 -25 10 -7 -4 -6 -1 1 9 15 17
7 29 -13 21 -9 -3 -14 1 -14 13 0 9 -3 14 -6 11 -4 -4 -15 3 -25 14 -10 12
-23 18 -29 14 -7 -4 -14 2 -17 14 -3 11 -9 18 -14 15 -5 -3 -17 0 -26 5 -10 6
-14 11 -9 11 5 0 -1 9 -14 20 -26 22 -35 26 -25 9 4 -6 -2 -5 -14 3 -12 7 -21
16 -21 21 0 4 -5 5 -10 2 -6 -3 -10 -1 -10 4 0 6 -20 16 -44 23 -25 6 -43 15
-40 20 3 4 -4 8 -16 8 -12 0 -19 4 -15 9 3 6 -3 8 -15 6 -11 -2 -22 1 -26 6
-3 5 -15 7 -26 3 -17 -5 -20 -3 -14 12 6 18 5 18 -8 1 -10 -14 -15 -15 -19 -5
-3 7 -6 8 -6 2 -1 -6 28 -35 63 -65 35 -30 66 -64 68 -76 3 -12 1 -20 -3 -17
-5 3 -9 12 -9 21 0 9 -3 14 -6 10 -9 -8 -75 43 -69 53 3 5 0 12 -6 16 -8 4 -9
3 -5 -4 14 -23 -11 -11 -39 18 -16 16 -31 28 -33 25 -3 -2 -17 4 -31 13 -39
27 -129 68 -191 88 -30 9 -60 23 -66 30 -7 9 -23 11 -47 7 -36 -5 -43 0 -38
30 1 4 -11 0 -26 -10 -15 -10 -24 -13 -20 -7 4 7 -1 14 -13 17 -11 3 -18 1
-14 -4 3 -5 -2 -6 -10 -3 -9 3 -13 11 -10 16 4 6 -4 5 -16 -2 -12 -6 -24 -9
-28 -6 -3 3 1 6 9 6 20 1 -79 34 -138 46 -7 1 -13 -3 -13 -9 0 -7 -5 -4 -11 5
-5 10 -22 18 -37 18 -21 0 -24 2 -12 10 11 7 7 8 -15 6 l-30 -3 -3 -1127 -2
-1126 5120 0 5120 0 0 1458 c-1 994 -4 1451 -11 1440 -5 -10 -17 -18 -25 -18
-19 0 -66 -35 -58 -43 3 -3 -5 -8 -18 -12 -27 -9 -68 -44 -68 -59 0 -15 -45
-56 -61 -56 -11 0 -11 -3 1 -10 10 -6 11 -10 2 -10 -6 0 -21 -9 -32 -20 -12
-12 -25 -18 -30 -15 -6 4 -10 1 -10 -6 0 -6 -11 -22 -25 -35 -26 -24 -35 -51
-12 -38 6 4 8 3 4 -1 -10 -12 -38 -15 -31 -4 3 5 3 9 -1 9 -3 0 -10 -11 -15
-25 -5 -14 -15 -24 -21 -23 -6 2 -14 -4 -16 -12 -4 -13 -3 -13 6 0 8 11 11 12
11 2 0 -8 -9 -16 -20 -19 -11 -3 -20 -12 -20 -20 0 -9 -6 -13 -14 -10 -10 4
-13 1 -9 -9 3 -8 2 -14 -3 -13 -24 4 -36 -2 -30 -17 3 -8 2 -12 -3 -9 -5 3
-12 -3 -16 -14 -3 -10 -17 -22 -30 -25 -14 -4 -25 -13 -25 -21 0 -8 -8 -19
-17 -24 -10 -6 -14 -11 -10 -11 12 0 -12 -40 -25 -40 -6 0 -5 7 3 18 13 15 12
16 -4 3 -14 -11 -15 -16 -5 -29 11 -13 10 -15 -5 -9 -11 4 -16 3 -12 -3 7 -11
-8 -42 -18 -41 -17 1 -37 -13 -37 -26 0 -22 -27 -46 -33 -30 -3 6 -6 2 -6 -10
-1 -13 -5 -23 -9 -23 -4 0 -19 -18 -32 -40 -14 -21 -31 -38 -39 -37 -8 1 -16
-5 -18 -13 -4 -13 -3 -13 7 0 10 12 11 12 8 1 -3 -8 -18 -22 -35 -30 -36 -19
-59 -60 -40 -74 8 -6 7 -7 -5 -3 -10 3 -18 2 -18 -3 0 -4 -12 -21 -27 -37 -15
-16 -28 -37 -28 -46 -1 -10 -9 -26 -18 -36 -9 -10 -17 -24 -17 -30 0 -6 -5
-14 -12 -18 -8 -5 -9 -2 -5 10 4 10 3 15 -3 11 -6 -3 -10 -12 -10 -20 0 -18
-33 -75 -44 -75 -5 0 -3 7 4 15 7 9 10 18 7 21 -3 3 -11 -4 -17 -16 -9 -18 -8
-25 6 -41 16 -18 16 -19 1 -13 -10 3 -17 1 -17 -6 0 -6 -6 -8 -12 -4 -7 4 -10
4 -6 -1 4 -4 2 -15 -5 -23 -10 -13 -8 -15 13 -9 23 5 23 4 -8 -22 -17 -15 -32
-33 -32 -39 0 -6 -14 -22 -31 -34 -51 -38 -79 -106 -38 -93 15 5 19 4 15 -4
-4 -6 -18 -11 -32 -11 -14 0 -24 -3 -22 -7 2 -5 -11 -23 -29 -41 -20 -21 -33
-28 -33 -19 0 36 167 381 262 542 106 178 318 431 502 598 92 84 212 224 202
235 -4 3 -11 0 -16 -8 -6 -8 -10 -10 -10 -4 0 12 32 44 44 44 4 0 4 -5 0 -12
-9 -15 26 10 69 48 84 75 167 145 220 183 l57 42 0 3609 0 3610 -5120 0 -5120
0 0 -3560z m4728 2864 c32 -22 30 -67 -4 -82 -52 -24 -84 25 -48 76 18 26 23
27 52 6z m733 -4 c37 -20 15 -96 -24 -84 -44 12 -59 51 -31 78 18 19 28 20 55
6z m-208 -8 c23 -10 57 -61 50 -78 -3 -8 0 -14 7 -14 7 0 9 -8 5 -19 -4 -14 3
-24 29 -40 36 -23 76 -77 76 -103 0 -9 7 -21 15 -28 8 -6 14 -15 13 -18 -2
-18 5 -20 38 -10 31 8 39 7 60 -13 33 -31 31 -76 -6 -127 -19 -27 -30 -54 -30
-76 0 -48 -8 -65 -41 -82 -32 -16 -52 -9 -109 36 -22 17 -30 19 -65 9 -22 -5
-47 -13 -55 -16 -12 -5 -96 -25 -207 -48 -28 -7 -134 21 -145 37 -4 7 -8 9 -8
5 0 -5 -16 1 -36 12 l-36 22 -38 -35 c-31 -28 -45 -34 -71 -31 -17 3 -32 6
-33 7 -1 2 -10 15 -19 30 -9 15 -17 45 -17 67 0 27 -6 44 -18 53 -27 19 -40
48 -37 85 4 41 12 53 37 53 14 0 18 5 15 15 -4 8 -2 17 3 20 6 4 10 2 10 -4 0
-5 16 -15 36 -21 31 -11 37 -10 49 7 8 10 12 23 10 28 -3 6 -8 18 -11 28 -8
21 -30 22 -38 2 -8 -22 -62 -19 -86 5 -60 60 23 139 100 95 32 -18 50 -19 50
-1 0 15 98 50 133 48 9 0 17 3 17 8 0 11 33 29 126 72 39 18 197 31 227 20z
m282 -147 c14 -13 25 -36 25 -50 0 -34 -36 -69 -63 -61 -12 3 -31 6 -42 6 -15
0 -17 2 -6 9 9 6 11 15 6 27 -15 35 -12 58 9 76 28 24 43 22 71 -7z m1995
-120 c4 3 7 -36 7 -86 -1 -50 -3 -84 -5 -75 -4 18 -27 22 -37 6 -8 -12 -45 5
-45 21 0 6 -9 22 -19 36 -20 25 -18 53 3 53 6 0 16 10 21 22 10 22 57 42 63
26 2 -4 7 -6 12 -3z m-2015 -675 c50 0 160 -5 245 -10 134 -8 438 -21 567 -24
43 -1 66 -12 42 -20 -8 -3 -189 -9 -404 -15 -444 -12 -2702 -2 -2835 13 -19 2
-44 5 -55 6 -49 4 35 22 125 26 232 11 280 11 365 1 50 -5 97 -10 105 -10 8 0
87 3 175 7 187 8 435 15 735 22 118 3 218 6 222 7 5 1 146 1 315 0 170 -2 349
-3 398 -3z m965 -43 c0 -9 -10 -12 -30 -9 -35 5 -30 22 6 22 13 0 24 -6 24
-13z m-530 -207 c338 -5 683 -12 765 -15 83 -2 233 -7 335 -10 251 -8 429 -24
465 -41 17 -8 49 -18 72 -21 23 -3 44 -12 47 -19 5 -13 38 -31 59 -32 5 0 20
-13 34 -29 27 -28 81 -53 119 -53 12 0 27 -6 33 -14 7 -8 23 -17 36 -20 13 -3
39 -22 57 -40 19 -19 46 -38 61 -41 15 -4 27 -11 27 -15 0 -4 11 -11 25 -14
14 -4 32 -17 41 -31 13 -19 25 -25 53 -25 21 0 41 -3 45 -7 4 -5 11 -8 14 -8
37 -3 117 -31 132 -47 10 -11 37 -24 60 -29 57 -13 98 -46 110 -88 18 -71 31
-296 32 -588 1 -247 -2 -312 -16 -380 -16 -76 -16 -91 -2 -210 9 -70 20 -146
25 -167 16 -65 -7 -256 -30 -256 -5 0 -9 -7 -9 -15 0 -8 -8 -19 -19 -24 -28
-16 -33 -59 -8 -82 18 -17 19 -19 3 -19 -9 0 -15 -3 -13 -7 3 -5 -1 -21 -8
-38 -12 -27 -13 -27 -14 -7 -1 28 -15 28 -35 0 -11 -16 -13 -25 -4 -35 6 -7 7
-13 2 -13 -5 0 -1 -5 9 -11 9 -5 21 -7 27 -4 19 12 60 -26 60 -56 0 -31 -7
-37 -55 -43 -63 -8 -83 -17 -88 -43 -3 -16 2 -31 16 -44 26 -24 17 -34 -43
-49 -25 -6 -63 -16 -85 -22 -22 -5 -60 -12 -85 -15 -25 -3 -49 -9 -55 -13 -5
-4 -35 -11 -65 -15 -58 -7 -129 -34 -130 -49 0 -10 157 1 174 12 6 4 34 8 61
9 28 1 68 4 90 8 28 4 47 1 60 -9 22 -16 26 -13 -55 -36 -25 -8 -76 -23 -115
-36 -38 -12 -97 -26 -130 -30 -33 -3 -63 -11 -66 -15 -3 -5 -18 -10 -33 -11
-16 -2 -31 -8 -33 -15 -3 -7 -9 -11 -13 -8 -5 3 -11 1 -14 -3 -7 -12 231 -6
324 9 41 6 93 12 115 14 22 2 50 6 63 10 39 13 24 -14 -18 -31 -22 -9 -40 -20
-40 -24 0 -15 60 -22 135 -15 71 7 76 6 95 -16 17 -21 19 -40 20 -137 0 -107
-1 -114 -25 -137 -18 -19 -35 -25 -67 -25 -24 -1 -104 -5 -178 -10 -227 -16
-344 -24 -372 -24 -16 -1 -28 -5 -28 -9 0 -5 -5 -5 -10 -2 -6 4 -17 1 -25 -5
-13 -11 -15 79 -15 711 0 398 -1 875 -3 1059 -2 334 -3 335 -29 415 -28 81
-81 178 -128 231 -34 39 -142 134 -152 134 -4 0 10 -16 32 -36 22 -20 40 -41
40 -47 0 -5 -9 -2 -19 7 -11 10 -24 15 -30 12 -5 -4 -12 -2 -16 4 -10 16 -45
12 -45 -5 0 -8 -4 -15 -9 -15 -5 0 -14 7 -21 15 -16 19 -31 19 -24 0 5 -12 0
-12 -28 -5 -46 14 -56 13 -61 -7 -4 -14 -5 -12 -6 5 -1 29 -41 32 -41 2 0 -13
-5 -18 -14 -14 -9 3 -12 13 -9 22 4 11 -1 9 -14 -6 -15 -16 -34 -23 -71 -26
-28 -2 -55 -7 -61 -11 -19 -11 -72 -15 -66 -5 4 6 -4 10 -17 10 -19 0 -20 -2
-8 -11 11 -8 6 -9 -21 -6 -21 3 -42 0 -49 -6 -10 -9 -14 -9 -17 1 -6 14 -43
16 -43 2 0 -5 -9 -10 -20 -10 -11 0 -20 -5 -20 -10 0 -6 -10 -2 -22 10 -12 11
-27 20 -32 19 -6 0 -5 -3 2 -6 6 -2 12 -11 12 -18 0 -7 6 -15 13 -18 6 -2 8
-8 4 -13 -4 -5 -13 -2 -18 6 -8 11 -12 12 -16 3 -9 -23 -25 -14 -18 10 4 14 3
18 -3 9 -5 -7 -16 -10 -25 -7 -19 8 -82 -36 -66 -46 7 -4 5 -8 -5 -12 -9 -4
-17 1 -21 14 -8 25 -19 24 -34 -3 -11 -21 -11 -21 -7 9 4 25 2 31 -9 26 -8 -3
-15 -11 -15 -19 0 -8 -9 -14 -20 -14 -10 0 -31 -12 -45 -27 -24 -27 -32 -22
-19 11 3 9 12 16 20 16 8 0 11 6 8 15 -6 14 -8 13 -20 -2 -12 -16 -15 -16 -23
-3 -6 8 -14 11 -18 6 -4 -5 -2 -11 5 -13 17 -6 15 -23 -3 -23 -8 0 -15 -5 -15
-12 0 -6 -9 -3 -20 7 -11 10 -20 14 -20 9 0 -5 -4 -2 -10 6 -7 12 -14 12 -43
2 -18 -7 -43 -12 -55 -12 -11 0 -24 -5 -28 -11 -3 -6 -16 -8 -29 -5 -16 4 -25
1 -29 -11 -6 -14 -8 -15 -19 0 -9 11 -18 13 -34 6 -13 -4 -23 -13 -23 -19 0
-5 -4 -10 -10 -10 -5 0 -10 7 -10 16 0 8 -5 12 -11 9 -18 -12 19 -43 44 -38
20 4 20 3 4 -7 -9 -6 -22 -8 -29 -4 -7 4 -8 3 -4 -5 5 -7 17 -9 29 -5 26 8 21
1 -12 -16 -13 -6 -21 -8 -17 -2 3 5 -15 28 -41 51 -48 42 -63 49 -63 31 0 -5
5 -10 10 -10 6 0 10 -9 10 -20 0 -14 -6 -20 -22 -19 -13 0 -17 3 -10 6 6 2 12
9 12 14 0 13 -34 11 -48 -3 -9 -9 -12 -9 -12 0 0 9 -5 9 -20 0 -16 -10 -24
-10 -40 0 -12 7 -20 8 -20 2 0 -5 -8 -10 -18 -10 -10 0 -24 -6 -31 -12 -10
-11 -15 -10 -25 5 -20 27 -44 22 -38 -8 2 -15 0 -25 -7 -25 -6 0 -11 10 -12
23 -1 20 -2 19 -13 -7 -8 -17 -15 -24 -18 -16 -3 11 -20 11 -86 4 -45 -5 -82
-6 -82 -2 0 4 -7 8 -15 8 -8 0 -15 -7 -15 -15 0 -8 -7 -15 -15 -15 -8 0 -15 6
-15 14 0 9 -7 12 -19 9 -13 -3 -17 -10 -14 -20 5 -13 -3 -14 -58 -8 -35 5 -77
7 -94 6 -201 -14 -237 -15 -246 -6 -6 5 -13 5 -20 -2 -7 -7 -91 -9 -255 -6
-230 5 -344 -4 -344 -26 0 -3 -9 -12 -20 -18 -16 -11 -18 -10 -14 2 4 10 0 15
-15 15 -12 0 -21 -4 -21 -10 0 -5 -5 -10 -10 -10 -7 0 -7 6 0 20 8 14 8 20 0
20 -6 0 -13 -6 -16 -14 -7 -18 -44 -17 -44 1 0 18 -19 16 -26 -2 -5 -12 -24
-14 -113 -8 -58 3 -111 10 -118 15 -7 5 -18 6 -24 2 -7 -4 -9 -3 -6 2 3 6 2
16 -3 24 -9 15 -13 16 -46 19 -8 0 -12 6 -9 11 3 6 1 10 -6 10 -9 0 -11 -46
-7 -188 3 -104 3 -203 0 -221 -4 -31 -6 -32 -46 -29 l-41 3 -5 125 c-6 139 0
140 -64 -8 -32 -74 -66 -128 -66 -105 0 4 -4 2 -9 -6 -18 -29 -40 1 -87 121
l-49 123 -6 -117 c-4 -64 -10 -121 -13 -127 -4 -6 -25 -11 -47 -11 l-39 0 -1
218 c-1 119 -3 209 -6 199 -2 -9 -9 -15 -14 -12 -5 4 -9 -7 -9 -24 0 -16 -4
-33 -10 -36 -5 -3 -11 -16 -11 -28 -1 -20 -2 -21 -7 -2 l-5 20 -8 -20 c-7 -19
-12 22 -13 103 0 12 -4 22 -8 22 -4 0 -8 -58 -8 -128 0 -71 -3 -170 -6 -220
l-7 -92 -43 0 -44 0 0 90 0 90 -83 0 c-79 0 -83 -1 -83 -22 0 -13 -1 -53 -2
-90 l-2 -68 -43 0 -44 0 -6 113 c-4 61 -8 162 -8 222 -2 109 -2 109 -11 45 -5
-36 -13 -79 -18 -96 -6 -17 -10 -47 -10 -67 0 -39 -19 -53 -21 -14 -1 21 -1
21 -9 -3 -8 -24 -8 -24 -9 -2 -1 15 -8 22 -21 23 -11 1 -26 2 -32 3 -19 3 -32
-6 -20 -13 6 -3 -9 -7 -31 -8 -23 -1 -60 -9 -81 -18 -21 -9 -49 -14 -61 -11
-12 3 -30 -1 -41 -9 -10 -8 -28 -15 -39 -16 -11 -1 -4 -5 15 -9 30 -6 24 -8
-35 -10 -38 -2 -56 -5 -40 -7 48 -7 57 -25 11 -21 -33 2 -41 -1 -45 -17 -6
-21 -37 -71 -57 -92 -6 -6 -9 -24 -6 -39 3 -17 1 -25 -5 -21 -14 9 -21 -29
-29 -167 l-7 -116 94 -1 c52 -1 213 -5 359 -8 l265 -7 -365 -2 c-201 -1 -371
-6 -378 -10 -16 -11 -18 -3310 -1 -3459 6 -52 19 -129 30 -171 11 -43 22 -84
24 -92 2 -8 21 -50 43 -92 56 -109 36 -97 -26 14 -91 168 -117 288 -124 595
-2 68 -6 123 -10 123 -5 0 -8 17 -8 38 0 20 -4 42 -8 47 -14 20 -79 34 -182
40 -58 4 -163 13 -235 21 -71 8 -136 14 -142 14 -7 0 -13 7 -13 15 0 8 9 15
21 15 11 0 30 5 41 11 11 6 58 17 104 24 45 8 107 25 136 38 106 50 126 57
142 51 12 -5 15 -2 10 10 -4 11 -1 16 10 16 9 0 16 -4 16 -10 0 -5 4 -10 8
-10 8 0 16 56 14 95 -3 44 -10 60 -26 57 -10 -2 -24 10 -36 30 -10 18 -28 40
-40 48 -11 8 -20 20 -20 27 0 14 -39 38 -47 29 -4 -3 -12 -1 -20 5 -13 11 -14
10 -17 -13 -2 -16 -26 -22 -26 -6 -1 8 -6 6 -15 -6 -8 -11 -15 -16 -15 -12 0
5 -7 2 -17 -5 -12 -11 -57 -14 -192 -14 -193 1 -239 10 -273 56 -26 34 -38
137 -40 324 -1 120 2 158 16 190 20 46 72 94 104 95 28 0 28 7 -1 30 l-22 18
24 21 c13 12 28 21 33 21 16 0 103 42 110 53 4 6 28 11 55 10 35 0 39 0 13 4
-53 7 -61 23 -12 23 42 0 57 15 25 23 -12 3 -9 5 8 6 57 2 88 13 82 28 -5 12
2 14 33 13 21 -2 46 0 54 3 17 6 76 15 135 21 75 7 135 18 141 27 3 5 18 9 35
9 21 0 29 5 29 18 0 9 3 35 7 56 4 28 3 37 -5 32 -7 -4 -12 -3 -12 2 0 5 -12
7 -26 4 -14 -2 -49 0 -78 6 -28 6 -130 18 -226 27 -193 17 -253 31 -245 55 8
24 -31 60 -65 60 -61 0 -98 114 -45 138 14 7 38 12 53 12 15 0 74 11 132 25
58 14 126 25 153 25 26 0 47 5 47 10 0 6 10 10 23 8 27 -3 107 22 107 34 0 4
11 8 24 8 14 0 28 5 31 10 3 6 3 10 -2 10 -218 1 -263 6 -284 26 l-21 21 44
20 c23 12 71 34 106 49 89 41 83 52 -35 65 -42 5 -78 11 -82 14 -9 9 22 26 40
21 9 -2 21 5 28 15 7 12 7 19 1 19 -5 0 -10 -5 -10 -11 0 -5 -5 -7 -10 -4 -6
4 -8 10 -6 14 3 4 -15 20 -39 36 -52 33 -57 45 -16 45 38 0 51 32 26 61 -14
15 -15 22 -5 33 20 25 6 40 -51 52 l-54 12 40 2 40 2 -35 9 c-19 5 -53 11 -75
14 -22 2 -65 10 -95 17 -53 13 -55 14 -58 50 -2 21 1 45 7 55 7 15 2 27 -25
58 -48 56 -60 121 -44 253 7 56 9 119 5 139 -3 20 -7 102 -7 183 0 138 11 216
34 247 5 6 5 14 -2 18 -15 9 -12 82 5 115 8 15 16 44 17 64 2 20 8 37 13 38 6
1 16 8 23 15 8 7 18 11 23 8 5 -4 6 0 3 8 -3 8 -1 18 5 22 6 3 14 -1 17 -9 5
-13 11 -11 35 12 35 32 36 42 8 42 -18 0 -20 2 -9 16 11 13 9 19 -15 42 -15
15 -25 21 -21 15 4 -7 4 -18 1 -24 -11 -16 -64 50 -74 90 -37 155 -43 223 -38
388 3 92 8 179 11 193 6 28 11 55 21 114 5 29 9 36 16 25 5 -9 9 -10 9 -2 0
12 63 29 88 25 7 -2 12 1 11 5 -5 27 1 35 16 23 8 -7 12 -16 9 -21 -3 -5 0 -9
5 -9 6 0 11 9 11 19 0 11 5 23 10 26 6 3 10 -1 10 -9 0 -11 10 -16 31 -16 26
0 29 3 24 20 -8 25 20 28 29 4 5 -14 9 -14 22 -3 10 8 38 12 75 11 46 -2 59 1
59 12 0 20 45 28 131 23 41 -3 63 -2 49 2 -39 11 -10 20 86 27 49 4 97 11 107
16 24 12 80 15 477 23 178 3 327 8 330 10 3 2 267 7 586 11 318 3 580 8 582 9
8 7 988 4 1522 -5z m-3715 -70 c-3 -5 -15 -10 -25 -10 -10 0 -22 5 -25 10 -4
6 7 10 25 10 18 0 29 -4 25 -10z m5540 -100 c3 -6 -1 -7 -9 -4 -18 7 -21 14
-7 14 6 0 13 -4 16 -10z m1684 -284 c47 -25 100 -85 113 -129 6 -23 12 -80 11
-127 0 -79 -3 -89 -34 -137 -19 -29 -40 -53 -46 -53 -7 0 -13 -7 -13 -15 0 -8
-7 -15 -15 -15 -8 0 -15 -4 -15 -10 0 -11 -58 -38 -110 -51 -41 -10 -153 6
-190 26 -14 8 -33 17 -42 21 -10 3 -18 11 -18 18 0 6 -9 17 -20 24 -35 22 -62
90 -65 164 -1 38 2 71 6 74 5 3 9 14 9 24 0 10 11 32 25 48 14 17 25 32 25 35
0 10 43 53 70 70 23 14 83 37 135 51 32 8 145 -4 174 -18z m-1920 -420 c9 -10
8 -15 -2 -19 -8 -3 -13 3 -13 14 0 23 0 23 15 5z m-6655 -57 c74 -36 149 -116
192 -204 83 -168 47 -364 -91 -499 -58 -57 -165 -111 -240 -120 -62 -8 -168
13 -239 48 -53 26 -146 108 -183 161 -12 17 -24 53 -28 80 -4 28 -11 55 -16
60 -4 6 -4 29 1 50 5 22 9 54 9 70 -1 21 -3 24 -6 10 -10 -42 -23 -38 -23 8 0
37 4 47 16 47 12 0 14 3 6 13 -7 8 -6 18 4 31 8 11 14 28 14 38 0 10 5 18 11
18 6 0 9 5 7 12 -7 21 87 123 147 160 44 27 140 57 195 60 59 5 173 -17 224
-43z m6411 21 c3 -5 1 -10 -4 -10 -6 0 -11 5 -11 10 0 6 2 10 4 10 3 0 8 -4
11 -10z m-1355 -160 c0 -5 -4 -10 -10 -10 -5 0 -10 5 -10 10 0 6 5 10 10 10 6
0 10 -4 10 -10z m304 2 c3 -5 -1 -9 -9 -9 -8 0 -12 4 -9 9 3 4 7 8 9 8 2 0 6
-4 9 -8z m43 2 c-3 -3 -12 -4 -19 -1 -8 3 -5 6 6 6 11 1 17 -2 13 -5z m-561
-49 c20 -15 13 -18 -23 -9 -13 4 -23 10 -23 15 0 14 24 11 46 -6z m619 4 c78
-21 133 -84 149 -170 13 -71 -38 -159 -112 -191 -130 -58 -272 36 -272 178 1
92 41 149 128 180 46 16 57 17 107 3z m765 -17 c19 -9 49 -36 67 -59 102 -136
-5 -317 -177 -301 -118 12 -202 143 -163 258 18 52 36 76 78 98 70 36 128 37
195 4z m-1307 -204 c9 -5 17 -14 17 -19 0 -6 7 -9 15 -5 21 8 10 -38 -21 -86
-49 -76 -20 -73 -664 -73 -465 0 -581 3 -607 14 -39 16 -40 21 -10 41 19 13
100 15 547 16 289 1 533 2 542 3 22 1 68 44 68 63 0 9 9 27 21 42 21 27 46 28
92 4z m-2983 -12 c0 -3 -4 -8 -10 -11 -5 -3 -10 -1 -10 4 0 6 5 11 10 11 6 0
10 -2 10 -4z m6875 -33 c-3 -21 -10 -42 -15 -47 -5 -4 -6 -23 -3 -41 4 -27 1
-35 -17 -45 -13 -7 -19 -17 -16 -26 5 -13 -28 -94 -38 -94 -6 0 1 125 8 155
12 46 39 95 53 95 7 0 13 9 13 20 0 11 5 20 11 20 8 0 9 -13 4 -37z m-504
-307 c87 -59 195 -253 219 -392 22 -123 -7 -159 -69 -88 -27 30 -93 157 -153
294 -9 19 -25 55 -36 80 -26 59 -36 96 -28 115 8 21 26 19 67 -9z m-5913 -203
c-16 -2 -40 -2 -55 0 -16 2 -3 4 27 4 30 0 43 -2 28 -4z m500 0 c-21 -2 -57
-2 -80 0 -24 2 -7 4 37 4 44 0 63 -2 43 -4z m170 0 c-21 -2 -55 -2 -75 0 -21
2 -4 4 37 4 41 0 58 -2 38 -4z m159 0 c-20 -2 -52 -2 -70 0 -17 2 0 4 38 4 39
0 53 -2 32 -4z m141 0 c-10 -2 -28 -2 -40 0 -13 2 -5 4 17 4 22 1 32 -1 23 -4z
m460 0 c-15 -2 -42 -2 -60 0 -18 2 -6 4 27 4 33 0 48 -2 33 -4z m250 0 c-21
-2 -57 -2 -80 0 -24 2 -7 4 37 4 44 0 63 -2 43 -4z m175 0 c-7 -2 -21 -2 -30
0 -10 3 -4 5 12 5 17 0 24 -2 18 -5z m-133 -308 c18 -17 34 -20 25 -6 -3 5 0
13 6 17 7 4 9 3 5 -4 -3 -6 -2 -13 4 -17 5 -3 10 -12 10 -18 0 -7 -4 -6 -10 3
-5 8 -10 10 -10 5 0 -6 4 -15 9 -20 5 -6 11 -19 14 -30 4 -19 5 -19 6 2 1 15
14 28 44 42 52 25 65 26 117 5 46 -18 60 -38 60 -83 0 -17 5 -31 10 -31 6 0
10 -9 10 -20 0 -25 16 -25 64 1 29 15 49 19 75 15 20 -4 44 -7 53 -8 9 -1 15
-5 12 -9 -2 -4 3 -20 11 -35 8 -16 15 -37 15 -48 0 -16 2 -17 16 -5 9 7 40 13
70 13 45 1 58 -3 81 -26 22 -22 28 -37 28 -73 0 -29 4 -45 13 -45 6 0 12 4 12
9 0 5 7 12 16 15 10 4 13 2 8 -6 -5 -7 -3 -8 6 -3 23 14 79 23 77 13 -1 -6 4
-13 12 -16 9 -3 11 0 6 8 -6 10 -4 12 8 7 9 -3 30 -1 46 4 22 8 40 7 65 -1 36
-12 90 -65 81 -80 -3 -4 10 -11 28 -14 17 -4 43 -16 57 -27 23 -19 25 -29 25
-95 0 -99 14 -109 72 -52 40 39 44 40 85 34 24 -4 52 -7 62 -7 22 0 143 -46
163 -62 18 -13 36 -85 29 -113 -4 -14 -21 -29 -46 -40 -52 -23 -51 -40 3 -55
54 -14 72 -31 93 -85 12 -33 22 -44 38 -44 32 0 85 -37 97 -68 6 -15 8 -39 5
-54 -3 -16 -4 -28 -3 -28 2 0 18 11 37 25 39 29 60 31 100 10 30 -16 60 -61
60 -90 0 -10 14 -30 31 -46 29 -27 31 -34 26 -75 -5 -47 -30 -82 -72 -98 -17
-7 -15 -9 19 -21 44 -15 52 -24 66 -76 11 -41 4 -93 -16 -110 -18 -15 -57 -1
-50 18 5 11 2 13 -10 9 -13 -5 -12 1 5 28 26 41 26 46 4 46 -17 1 -17 1 0 11
14 8 16 14 6 25 -6 8 -15 14 -20 14 -5 0 -18 8 -28 17 -14 12 -17 21 -11 33 5
10 6 21 2 25 -4 5 1 5 12 1 14 -5 17 -3 12 10 -4 12 -2 15 9 10 14 -5 20 6 16
28 -1 5 2 12 7 15 4 3 6 17 2 31 -6 23 -7 22 -14 -13 -4 -22 -11 -35 -17 -31
-7 4 -7 10 0 17 17 17 13 44 -9 65 -11 10 -18 25 -15 33 4 10 -4 14 -30 16
-24 1 -35 -3 -35 -13 0 -8 -7 -14 -16 -14 -11 0 -15 -6 -11 -20 3 -11 0 -20
-6 -20 -6 0 -19 -8 -30 -17 -11 -10 -17 -12 -12 -4 6 10 2 12 -15 6 -15 -5
-20 -3 -16 3 3 6 -3 13 -14 17 -11 3 -20 14 -20 23 -1 9 -8 28 -16 42 -8 14
-13 17 -10 8 3 -10 1 -18 -4 -18 -6 0 -10 7 -10 16 0 9 -5 12 -12 8 -7 -5 -9
-2 -6 8 4 8 -4 26 -17 40 -13 14 -21 29 -17 32 3 4 0 4 -9 1 -20 -7 -23 33 -3
52 18 19 18 32 -1 39 -8 4 -15 11 -15 16 0 14 -62 68 -77 68 -7 0 -13 -8 -13
-17 0 -15 -2 -16 -10 -3 -8 13 -10 12 -10 -3 0 -26 -21 -45 -44 -39 -17 5 -18
1 -13 -30 3 -21 1 -40 -6 -47 -8 -8 -7 -11 4 -11 12 0 12 -2 -1 -10 -21 -14
-33 -12 -24 3 4 6 4 9 0 5 -4 -3 -7 -9 -6 -13 1 -7 -30 -34 -41 -35 -3 0 -11
11 -17 25 -6 14 -18 25 -27 25 -8 0 -15 5 -15 10 0 6 -6 10 -13 10 -7 0 -19
22 -26 49 -15 61 -41 61 -41 0 0 -46 -19 -98 -44 -118 -14 -12 -16 -12 -10 3
3 9 10 16 15 16 4 0 13 17 18 37 11 39 7 59 -4 23 -6 -20 -7 -21 -21 -3 -8 11
-13 13 -14 6 0 -7 -11 -13 -24 -13 -14 0 -27 -4 -31 -9 -3 -6 -17 -6 -35 -1
-17 5 -30 7 -30 4 0 -3 -8 0 -18 5 -13 7 -27 6 -45 -4 -24 -12 -26 -12 -36 16
-10 30 -37 32 -43 2 -2 -10 -16 -17 -36 -18 -31 -3 -33 -1 -28 20 3 13 1 27
-5 31 -6 3 -9 15 -6 25 3 11 1 19 -4 19 -10 0 -10 0 -14 -55 -1 -22 2 -49 7
-60 9 -20 9 -20 -6 -1 -9 11 -16 16 -16 10 1 -19 28 -118 29 -105 1 16 49 7
70 -14 26 -26 9 -147 -19 -130 -4 3 -10 -2 -14 -10 -3 -8 -12 -15 -21 -15 -12
0 -10 -7 10 -27 25 -27 35 -83 15 -83 -5 0 -10 -7 -10 -15 0 -8 -5 -15 -12
-15 -6 0 -8 -3 -5 -6 22 -22 -89 -104 -141 -104 -30 0 -37 18 -9 25 12 4 29
16 36 28 13 21 13 21 -5 6 -14 -13 -29 -15 -55 -10 l-36 6 0 61 c1 45 -5 71
-21 98 -29 49 -58 59 -124 40 -116 -32 -129 -38 -154 -71 -22 -29 -25 -41 -20
-78 4 -26 3 -46 -4 -50 -5 -3 -10 -15 -10 -26 0 -10 -4 -19 -9 -19 -4 0 -6 12
-3 27 5 26 4 27 -12 11 -14 -15 -15 -20 -4 -38 7 -11 19 -20 26 -20 7 0 38
-12 67 -26 30 -14 59 -22 65 -19 6 3 22 -3 36 -14 15 -12 37 -21 49 -21 32 0
101 -26 155 -58 25 -14 51 -25 59 -24 7 2 10 -1 7 -6 -6 -10 27 -42 86 -86
l37 -27 105 50 c110 53 125 57 156 41 16 -8 33 -1 93 40 103 70 145 67 268
-22 14 -9 24 -5 58 21 45 36 127 71 166 71 13 0 49 -12 80 -27 l55 -27 28 31
c35 41 105 77 148 75 38 -2 134 -59 134 -81 0 -8 -16 -109 -35 -225 -19 -116
-41 -251 -49 -301 -8 -49 -35 -209 -61 -355 -25 -146 -61 -355 -80 -465 -19
-110 -38 -211 -44 -225 -12 -29 -8 9 15 150 45 278 94 631 89 639 -3 5 -1 11
5 13 5 1 13 44 16 95 5 58 11 90 17 86 6 -3 7 -1 3 6 -4 6 -11 9 -16 6 -4 -3
-10 0 -12 7 -3 7 -4 -21 -3 -62 l2 -75 -13 50 c-6 28 -13 66 -14 85 -1 19 -4
27 -7 18 -2 -10 -12 -18 -21 -19 -14 0 -13 -2 3 -9 17 -7 16 -9 -10 -9 -34 -1
-50 -10 -58 -31 -3 -9 -6 -6 -7 10 0 14 -8 36 -16 50 l-15 25 5 -35 c4 -23 3
-30 -3 -21 -7 11 -10 9 -14 -10 -2 -13 -2 3 1 36 3 33 9 63 15 66 5 4 7 11 3
17 -3 6 5 94 19 195 33 247 34 236 -12 233 l-38 -2 -36 -256 c-20 -141 -39
-268 -43 -282 -3 -14 -9 -52 -12 -83 -4 -32 -11 -67 -16 -78 -6 -16 -7 -14 -3
8 4 19 2 26 -5 22 -5 -3 -11 -21 -12 -38 -1 -27 -2 -25 -8 13 -6 39 -7 40 -8
13 -1 -18 -6 -33 -11 -33 -5 0 -11 -6 -14 -12 -2 -7 -2 0 0 15 4 23 2 28 -14
25 -18 -3 -43 -39 -43 -63 0 -7 -7 -15 -15 -19 -8 -3 -15 -1 -15 4 0 6 -9 10
-21 10 -11 0 -18 -4 -15 -9 3 -5 -5 -12 -19 -15 -24 -6 -36 -26 -15 -26 6 0
10 -4 10 -10 0 -5 -6 -10 -14 -10 -8 0 -16 -10 -19 -22 -3 -21 -4 -21 -12 -4
-5 11 -4 21 3 25 8 5 8 17 3 36 l-9 30 -1 -28 c-1 -16 -9 -40 -20 -53 -16 -20
-37 -120 -34 -161 0 -7 -3 -10 -8 -7 -5 3 -10 -12 -10 -33 -1 -21 -3 -47 -5
-58 -2 -11 -7 -45 -12 -75 -18 -106 -12 -3 8 140 127 919 133 969 118 988 -21
25 -135 82 -164 82 -33 0 -160 -82 -168 -108 -3 -9 -17 -116 -31 -237 -71
-617 -114 -967 -130 -1065 l-14 -85 4 73 c1 40 6 76 9 79 3 4 5 20 5 37 -1 21
-3 25 -6 11 -3 -11 -9 -25 -15 -32 -5 -6 -6 -23 -2 -37 8 -35 -9 -33 -23 2
-10 25 -12 25 -18 7 -5 -17 -13 -19 -50 -17 -41 4 -45 2 -50 -25 -10 -44 -13
-50 -14 -25 -1 35 -21 26 -23 -10 -1 -21 -3 -12 -7 22 -6 53 -7 50 -19 -60
-29 -255 -28 -84 3 355 13 190 33 517 51 826 l6 116 -43 34 c-24 18 -51 40
-59 48 -19 19 -22 -10 -50 -479 -44 -741 -62 -965 -75 -947 -8 12 -12 12 -23
1 -6 -7 -12 -18 -12 -24 0 -5 -11 -10 -24 -10 -13 0 -27 -6 -30 -12 -3 -7 -3
-1 0 15 4 16 2 27 -5 27 -6 0 -11 -7 -11 -15 0 -15 -6 -17 -65 -19 -16 -1 -40
-5 -52 -10 -18 -6 -23 -4 -23 10 0 25 -30 -3 -31 -30 -1 -12 -5 -6 -9 14 -8
45 -16 27 -28 -70 -9 -72 -9 -70 -10 70 -1 80 3 442 8 804 l11 659 -22 23
c-31 33 -138 87 -170 86 -32 -1 -185 -77 -191 -95 -3 -7 -1 -219 3 -472 9
-549 11 -1140 4 -1134 -2 3 -5 32 -6 64 -2 49 -4 55 -12 37 -11 -24 -22 -28
-32 -12 -3 6 -14 10 -25 10 -14 0 -17 -5 -12 -22 4 -18 2 -20 -13 -14 -10 4
-21 2 -25 -4 -4 -6 -17 -6 -40 3 -25 9 -34 9 -37 0 -3 -8 -13 -8 -38 3 -59 24
-65 21 -66 -43 -2 -78 -11 33 -39 477 -66 1061 -72 1136 -87 1093 -3 -7 -10
-13 -16 -13 -6 0 -28 -12 -49 -27 l-39 -26 6 -91 c44 -676 88 -1533 66 -1276
-4 51 -9 69 -15 58 -12 -26 -24 -22 -29 10 -3 23 -4 22 -6 -8 -1 -22 -4 -30
-9 -22 -5 7 -27 14 -50 16 -42 3 -42 3 -43 -33 -2 -33 -2 -34 -6 -6 -7 50 -14
63 -23 40 -7 -17 -9 -16 -18 15 -9 29 -10 18 -5 -55 3 -49 3 -88 -1 -84 -6 6
-28 185 -81 659 -60 540 -96 823 -107 845 -14 25 -29 37 -94 75 -28 16 -62 30
-74 30 -29 0 -101 -36 -140 -69 l-30 -26 15 -95 c23 -146 147 -1161 142 -1166
-2 -2 -12 50 -22 116 -14 94 -22 120 -34 121 -11 0 -12 2 -3 6 6 2 12 16 12
29 0 24 -14 32 -25 14 -3 -5 -1 -10 4 -10 6 0 11 -4 11 -10 0 -5 -17 -10 -37
-10 -34 -1 -36 -2 -20 -14 12 -10 15 -16 7 -21 -11 -6 -39 20 -40 38 0 14 -33
7 -45 -10 -10 -13 -16 -15 -27 -6 -8 7 -19 8 -28 3 -9 -5 -19 -5 -26 1 -8 6
-14 5 -17 -5 -4 -11 -1 -13 10 -9 11 4 14 2 11 -8 -3 -8 -13 -13 -23 -12 -14
1 -16 -4 -11 -30 4 -23 3 -27 -4 -16 -5 9 -9 29 -9 45 0 16 -7 65 -16 109 -19
97 -31 181 -95 629 -28 192 -53 352 -56 357 -3 5 -18 9 -35 9 -21 0 -29 -5
-29 -17 0 -33 75 -591 121 -906 12 -76 18 -141 16 -144 -3 -2 -10 19 -15 49
l-10 53 -3 -50 c-1 -27 -4 -59 -5 -70 -1 -11 -2 -32 -3 -47 -1 -18 -6 -26 -13
-23 -8 3 -14 -4 -15 -17 0 -13 -2 -38 -4 -56 -1 -18 -9 -36 -17 -41 -10 -6
-13 -18 -10 -35 4 -18 2 -26 -6 -23 -18 7 -11 -109 24 -378 6 -38 12 -81 15
-95 8 -39 18 -176 12 -170 -2 3 -7 24 -10 47 -4 22 -9 52 -11 65 -3 12 -8 34
-10 48 -3 14 -14 70 -25 125 -11 55 -31 165 -45 245 -14 80 -50 285 -80 455
-31 171 -78 444 -106 609 -28 164 -57 333 -65 374 -10 49 -11 79 -5 87 5 7 6
15 2 19 -4 4 -2 6 4 4 5 -1 26 6 46 16 l36 19 -21 28 c-12 18 -22 49 -24 81
-4 44 -1 58 19 84 23 31 27 34 51 34 33 1 39 17 18 51 -31 51 -28 101 11 145
47 53 81 65 137 48 24 -7 49 -10 54 -7 6 4 7 1 2 -7 -6 -10 -4 -12 9 -7 10 4
27 7 39 7 17 0 19 2 7 9 -8 6 -19 7 -25 5 -5 -3 -2 1 7 9 11 9 15 21 11 37 -4
15 -2 21 5 16 6 -3 14 -1 18 5 4 8 3 9 -4 5 -7 -4 -12 -2 -12 4 0 6 -4 8 -10
5 -6 -3 -7 1 -3 10 3 9 9 13 12 8 3 -5 13 -8 21 -8 16 1 15 24 -2 40 -6 6 -6
0 1 -15 11 -22 10 -23 -2 -8 -8 11 -12 35 -10 65 1 26 3 59 4 73 1 14 4 19 6
12 3 -8 19 0 46 24 25 21 65 42 99 51 l57 16 -6 47 c-8 71 10 114 65 153 42
29 55 32 120 33 41 1 69 -2 63 -6 -8 -4 -5 -13 9 -25 13 -12 20 -31 21 -59 0
-23 3 -35 6 -28 2 6 11 12 19 12 19 0 18 29 -1 36 -11 5 -12 11 -4 25 6 13 6
25 -1 39 -9 16 -8 19 6 13 13 -5 15 -2 10 18 -6 20 -5 21 4 6 11 -17 30 -15
30 4 0 6 -6 7 -12 3 -9 -5 -8 -2 1 10 11 13 16 14 22 4 6 -8 9 0 10 22 l1 35
8 -29 c5 -16 6 -34 3 -39 -3 -6 -1 -7 6 -3 6 4 9 16 6 26 -10 33 -12 169 -2
163 6 -4 8 3 5 15 -3 12 -3 21 1 20 3 -1 24 9 46 23 57 37 111 52 161 46 24
-2 45 -2 47 2 2 3 3 1 1 -6 -1 -6 5 -18 15 -27 20 -18 35 -21 25 -5 -4 8 0 8
15 0 24 -13 29 -26 6 -17 -8 3 -15 2 -15 -3 0 -4 15 -13 33 -19 17 -7 22 -10
10 -8 -13 2 -23 0 -23 -5 0 -10 31 -12 55 -3 13 5 14 8 3 15 -8 6 2 8 27 8 31
0 36 -2 20 -9 -18 -8 -18 -9 -2 -9 11 -1 21 8 24 19 3 11 10 20 15 20 6 0 8
-7 4 -15 -3 -8 -1 -15 5 -15 7 0 9 10 5 23 -8 35 12 95 37 108 l22 11 -22 -21
c-13 -12 -23 -26 -23 -31 0 -6 16 8 36 30 20 22 45 40 56 40 11 0 26 7 34 15
21 20 35 19 28 -2 -3 -10 4 -2 16 17 12 19 19 27 16 18 -3 -10 -2 -18 2 -18 4
0 13 18 19 40 5 22 6 40 1 40 -5 0 7 14 27 31 60 53 165 70 205 34z m110 -9
c-7 -7 -13 -7 -20 0 -6 6 -3 10 10 10 13 0 16 -4 10 -10z m4062 -18 c27 -18
48 -38 48 -44 0 -6 6 -17 14 -23 20 -17 27 -61 10 -61 -8 0 -14 5 -14 10 0 6
-8 10 -18 10 -18 0 -142 113 -142 130 0 21 57 9 102 -22z m-4092 2 c0 -5 -2
-10 -4 -10 -3 0 -8 5 -11 10 -3 6 -1 10 4 10 6 0 11 -4 11 -10z m-4003 -72
c24 -26 36 -62 57 -169 19 -96 10 -133 -37 -148 -30 -10 -291 -58 -449 -83
-115 -18 -144 2 -189 127 -26 71 -27 75 -10 107 9 18 22 32 29 30 7 -1 12 2
12 8 0 6 9 10 21 10 11 0 30 5 42 12 12 6 38 15 57 19 19 4 107 26 195 49 88
23 174 46 190 50 49 13 60 11 82 -12z m3514 -65 c13 -16 12 -17 -3 -4 -17 13
-22 21 -14 21 2 0 10 -8 17 -17z m58 4 c-2 -2 -11 -8 -20 -15 -12 -9 -16 -9
-16 1 0 7 9 14 20 14 11 1 18 1 16 0z m-289 -107 c0 -5 -5 -10 -11 -10 -5 0
-7 5 -4 10 3 6 8 10 11 10 2 0 4 -4 4 -10z m160 -29 c-6 -12 -15 -21 -21 -21
-10 0 -5 13 14 38 15 19 20 7 7 -17z m5014 -57 c3 -9 6 -24 6 -33 0 -20 -35
-132 -55 -176 -7 -16 -17 -43 -21 -60 -15 -59 -45 -116 -57 -108 -7 4 -16 8
-22 8 -16 0 -21 86 -8 150 15 76 52 152 96 199 38 39 52 44 61 20z m-5568
-271 c-7 -7 -26 7 -26 19 0 6 6 6 15 -2 9 -7 13 -15 11 -17z m5258 -360 c-5
-65 -21 -111 -52 -145 -20 -24 -27 -23 -40 7 -15 32 -6 158 14 196 22 43 45
53 66 28 14 -17 16 -33 12 -86z m-2659 -49 c8 3 15 0 15 -7 -1 -15 -30 -55
-30 -40 0 7 -6 13 -12 16 -7 2 -5 3 5 2 24 -4 22 12 -3 20 -11 3 -20 11 -20
17 0 6 6 6 15 -2 8 -7 22 -10 30 -6z m35 -51 c0 -20 -3 -24 -11 -16 -7 7 -9
19 -6 27 10 24 17 19 17 -11z m3244 -13 c-5 -53 -72 -200 -83 -182 -5 8 -12
13 -17 12 -12 -3 -5 64 7 68 5 2 9 12 9 22 0 32 55 120 75 120 8 0 11 -13 9
-40z m-3969 10 c3 -5 1 -10 -4 -10 -6 0 -11 5 -11 10 0 6 2 10 4 10 3 0 8 -4
11 -10z m673 -31 c59 -29 102 -95 102 -159 l0 -45 63 0 c69 0 102 -17 133 -70
24 -40 24 -120 0 -143 -11 -9 -15 -11 -11 -4 12 22 17 72 7 72 -5 0 -8 12 -6
28 3 17 -1 12 -9 -13 l-13 -40 -68 -2 c-78 -2 -100 -8 -90 -24 3 -6 1 -15 -6
-19 -8 -5 2 -10 26 -14 44 -8 62 -20 87 -56 22 -31 24 -78 3 -61 -26 22 -79
29 -110 16 -16 -7 -18 -5 -12 11 6 15 5 17 -5 7 -19 -18 -36 -16 -60 8 -18 18
-25 19 -45 10 -13 -6 -23 -14 -22 -18 4 -14 -23 -54 -32 -48 -6 4 -7 -1 -3
-11 4 -12 3 -15 -6 -10 -9 6 -10 1 -5 -18 6 -24 4 -25 -17 -17 -13 4 -24 13
-24 19 0 6 -3 13 -7 17 -4 4 2 17 13 28 10 11 17 28 14 36 -2 9 2 43 9 75 8
33 12 65 9 72 -2 6 -24 17 -48 23 -24 6 -46 15 -50 21 -3 5 -12 7 -20 3 -11
-3 -13 -1 -9 10 4 13 -6 15 -65 12 -98 -4 -143 -37 -161 -118 l-7 -32 -4 42
c-2 23 -1 39 3 37 3 -2 9 0 13 6 3 5 1 10 -5 10 -7 0 -9 9 -5 23 3 12 3 18 -2
12 -4 -5 -15 -11 -24 -11 -11 -1 -14 5 -11 23 2 13 8 26 13 29 5 3 9 13 9 22
-1 14 -5 12 -21 -7 -16 -20 -24 -23 -38 -14 -11 7 -23 8 -34 1 -12 -6 -17 -5
-17 4 0 8 -9 21 -19 30 -19 16 -20 16 -24 -5 -3 -20 -4 -19 -11 6 -11 37 24
77 66 77 58 0 104 -29 99 -62 -2 -13 10 -9 46 13 30 19 54 23 145 28 10 1 22
18 32 48 24 70 65 124 111 144 52 24 69 24 123 -2z m378 -151 c5 -7 3 -8 -5
-4 -7 5 -21 0 -32 -10 -10 -9 -19 -12 -19 -6 0 10 27 31 42 32 4 0 10 -5 14
-12z m943 -13 c1 15 3 17 10 7 4 -8 26 -16 47 -19 22 -3 47 -12 57 -21 10 -9
17 -11 17 -4 0 7 16 12 40 12 43 0 55 -16 18 -23 -13 -2 -8 -3 10 -1 17 1 32
0 32 -2 0 -13 -29 -32 -57 -38 -29 -7 -58 -39 -30 -35 6 2 24 -3 38 -10 20
-10 32 -10 47 -2 14 7 23 8 27 1 3 -5 21 -10 39 -10 19 0 51 -6 72 -13 22 -8
72 -17 112 -21 79 -7 112 -19 112 -40 0 -16 42 -46 64 -46 8 0 27 -10 42 -22
106 -88 162 -174 185 -287 12 -54 11 -71 -4 -128 -24 -93 -44 -129 -103 -190
-100 -102 -247 -144 -381 -109 -81 21 -147 50 -172 75 -11 11 -37 29 -58 40
-21 11 -32 20 -25 21 7 0 10 4 7 10 -11 18 -45 -12 -39 -36 4 -15 -3 -28 -28
-49 -18 -15 -36 -35 -40 -44 -4 -11 -7 -7 -8 14 -1 17 -4 24 -7 17 -2 -6 -9
-10 -14 -6 -5 3 -9 -39 -9 -100 0 -64 4 -106 10 -106 6 0 11 -8 11 -17 1 -17
2 -17 6 0 5 21 12 21 39 3 11 -8 40 -17 63 -20 24 -3 73 -20 110 -38 l66 -32
172 -2 c95 -2 180 -7 191 -13 11 -6 23 -7 27 -3 5 4 5 1 1 -6 -4 -7 -1 -15 8
-18 50 -19 -26 -40 -174 -48 -58 -3 -179 -8 -270 -12 -91 -3 -182 -9 -202 -14
-21 -4 -38 -4 -38 0 0 4 -8 7 -17 6 -16 -1 -18 44 -20 699 -1 418 1 692 7 680
l9 -20 0 20z m1189 -212 c80 -51 167 -187 160 -249 -5 -50 -34 -42 -101 28
-174 180 -187 199 -172 245 5 14 75 0 113 -24z m-8438 -140 c0 -26 -45 -169
-60 -188 -4 -5 -10 -22 -14 -37 -4 -20 -13 -28 -28 -28 -19 0 -20 4 -15 68 2
37 12 81 21 97 9 17 16 35 16 41 0 6 9 19 20 29 11 10 20 24 20 32 0 7 9 13
20 13 15 0 20 -7 20 -27z m5257 -85 c13 -12 23 -29 22 -37 0 -14 -1 -14 -6 -1
-4 8 -18 25 -32 37 -14 13 -22 23 -17 23 6 0 20 -10 33 -22z m-17 -13 c6 -8 9
-23 5 -36 -5 -15 -9 -18 -15 -9 -6 9 -13 9 -28 1 -11 -6 -32 -11 -47 -11 -17
0 -24 -4 -19 -12 4 -7 3 -8 -5 -4 -6 4 -9 11 -6 16 3 5 0 12 -6 16 -15 9 17
34 43 34 10 0 18 5 18 10 0 15 46 12 60 -5z m3275 -147 c39 -20 85 -67 85 -85
0 -20 -24 -26 -62 -14 -48 15 -242 82 -250 87 -14 9 30 43 59 46 37 4 130 -15
168 -34z m-2278 -510 c-2 -13 -4 -5 -4 17 -1 22 1 32 4 23 2 -10 2 -28 0 -40z
m107 37 c-4 -8 -11 -15 -16 -15 -6 0 -5 6 2 15 7 8 14 15 16 15 2 0 1 -7 -2
-15z m6 -44 c0 -5 -9 -7 -20 -4 -11 3 -20 7 -20 9 0 2 9 4 20 4 11 0 20 -4 20
-9z m-153 -43 c-3 -7 -5 -2 -5 12 0 14 2 19 5 13 2 -7 2 -19 0 -25z m20 -20
c-3 -7 -5 -2 -5 12 0 14 2 19 5 13 2 -7 2 -19 0 -25z m133 15 c0 -10 -4 -14
-8 -8 -4 6 -11 13 -16 18 -5 4 -2 7 7 7 10 0 17 -8 17 -17z m-310 -110 c-11
-17 -11 -17 -6 0 3 10 7 26 7 35 1 15 2 15 6 0 2 -10 -1 -25 -7 -35z m37 -35
c-3 -8 -6 -5 -6 6 -1 11 2 17 5 13 3 -3 4 -12 1 -19z m-260 -105 c-3 -10 -5
-4 -5 12 0 17 2 24 5 18 2 -7 2 -21 0 -30z m235 -15 c-8 -8 -9 -4 -5 13 4 13
8 18 11 10 2 -7 -1 -18 -6 -23z m-4332 -88 c0 -5 -4 -10 -10 -10 -5 0 -10 5
-10 10 0 6 5 10 10 10 6 0 10 -4 10 -10z m1395 -80 c-3 -5 -13 -10 -21 -10 -8
0 -14 5 -14 10 0 6 9 10 21 10 11 0 17 -4 14 -10z m-272 -75 c-3 -9 -8 -14
-10 -11 -3 3 -2 9 2 15 9 16 15 13 8 -4z m5282 -11 c11 -4 32 -21 48 -37 24
-25 28 -35 25 -75 -3 -52 11 -43 -138 -85 -58 -17 -75 -12 -90 23 -7 16 -21
32 -31 35 -27 9 -210 -37 -304 -75 -11 -5 -49 -18 -84 -30 -35 -11 -78 -28
-95 -38 -17 -9 -37 -15 -43 -14 -7 2 -13 -2 -13 -8 0 -5 -6 -10 -14 -10 -7 0
-34 -11 -60 -25 -26 -14 -53 -25 -60 -25 -7 0 -23 -11 -36 -25 -12 -13 -27
-22 -32 -19 -5 3 -6 -7 -3 -23 5 -23 4 -25 -5 -10 -9 13 -8 27 1 55 7 20 20
82 30 137 12 72 18 89 19 60 1 -22 4 -34 7 -27 2 6 9 10 14 6 5 -3 9 0 9 5 0
6 3 10 8 9 4 -1 27 7 52 18 25 11 68 26 95 34 28 7 55 17 60 21 6 4 67 21 137
38 70 17 139 36 153 41 24 9 122 33 205 49 44 9 119 6 145 -5z m-5158 -26 c-3
-7 -5 -2 -5 12 0 14 2 19 5 13 2 -7 2 -19 0 -25z m-110 0 c-3 -8 -6 -5 -6 6
-1 11 2 17 5 13 3 -3 4 -12 1 -19z m120 -65 c-3 -10 -5 -4 -5 12 0 17 2 24 5
18 2 -7 2 -21 0 -30z m2750 -5 c-3 -7 -5 -2 -5 12 0 14 2 19 5 13 2 -7 2 -19
0 -25z m-400 -85 c-3 -10 -5 -4 -5 12 0 17 2 24 5 18 2 -7 2 -21 0 -30z m390
15 c-3 -8 -6 -5 -6 6 -1 11 2 17 5 13 3 -3 4 -12 1 -19z m-2440 -30 c-3 -7 -5
-2 -5 12 0 14 2 19 5 13 2 -7 2 -19 0 -25z m1958 12 c3 -5 1 -10 -4 -10 -6 0
-11 5 -11 10 0 6 2 10 4 10 3 0 8 -4 11 -10z m-2238 -32 c-3 -7 -5 -2 -5 12 0
14 2 19 5 13 2 -7 2 -19 0 -25z m1990 -155 c-3 -10 -5 -4 -5 12 0 17 2 24 5
18 2 -7 2 -21 0 -30z m3283 -27 c217 -4 415 -9 440 -11 115 -12 212 -18 290
-20 274 -7 -28 -19 -560 -23 -511 -4 -614 -14 -715 -72 -81 -47 -172 -143
-189 -200 -17 -58 -26 -75 -82 -161 -24 -36 -53 -86 -65 -110 -13 -24 -27 -47
-33 -51 -15 -10 28 -16 164 -22 138 -7 235 -24 307 -56 54 -24 149 -85 159
-103 4 -6 -1 -4 -12 5 -21 18 -74 42 -87 39 -5 -1 -6 2 -3 7 3 5 -9 9 -26 10
-17 0 -34 4 -37 9 -10 13 -39 15 -62 2 -16 -8 -20 -8 -14 1 5 8 -3 10 -31 6
-22 -3 -34 -3 -27 2 8 5 9 13 3 22 -7 10 -10 11 -10 3 0 -7 -10 -13 -22 -12
-38 1 -94 -8 -108 -16 -9 -5 -11 -4 -6 4 9 13 -29 11 -52 -3 -7 -4 -16 -5 -20
-1 -3 3 0 10 8 15 9 6 10 10 3 10 -6 0 -14 -4 -18 -10 -3 -5 -13 -6 -22 -3
-12 5 -14 3 -8 -7 5 -8 3 -11 -6 -8 -8 3 -13 11 -12 17 4 17 -7 13 -29 -11
-12 -14 -18 -17 -15 -8 4 12 -3 16 -27 17 -29 1 -29 1 -6 -7 23 -7 24 -8 3 -9
-12 -1 -25 4 -28 9 -4 7 -13 7 -24 0 -12 -6 -22 -5 -30 3 -10 9 -11 8 -5 -7 7
-18 6 -18 -22 0 -17 12 -25 14 -20 5 7 -10 4 -12 -13 -6 -12 4 -21 2 -21 -4 0
-6 -5 -11 -11 -11 -6 0 -9 7 -5 15 7 20 -4 19 -20 -2 -13 -17 -13 -17 -14 2 0
17 -2 17 -10 5 -9 -13 -10 -13 -10 0 0 13 -1 13 -10 0 -9 -13 -11 -13 -20 0
-8 12 -10 13 -10 1 0 -8 -3 -11 -7 -8 -3 4 -12 -1 -20 -11 -8 -9 -12 -12 -9
-6 3 7 -1 17 -9 24 -13 11 -14 10 -9 -4 3 -9 1 -16 -5 -16 -6 0 -11 5 -11 11
0 5 -5 7 -12 3 -8 -5 -9 -2 -5 10 4 10 3 15 -3 11 -6 -3 -10 -13 -10 -21 0 -8
-5 -14 -11 -14 -5 0 -7 5 -4 10 3 6 -4 10 -18 10 -14 0 -40 2 -58 5 -27 4 -30
3 -14 -5 17 -8 16 -9 -10 -7 -18 1 -29 7 -28 14 3 15 -18 13 -29 -1 -3 -6 -19
-11 -35 -13 -15 -1 -41 -5 -58 -8 -24 -4 -26 -3 -10 4 27 13 3 14 -30 1 -23
-9 -26 -8 -21 5 4 12 2 13 -12 6 -16 -8 -112 -6 -140 4 -7 3 -10 0 -7 -5 3 -6
-1 -7 -9 -4 -9 3 -14 9 -11 13 2 4 -6 6 -18 5 -12 -1 -26 -3 -30 -3 -5 -1 -5
-7 -1 -13 6 -10 4 -10 -7 -2 -17 14 -79 24 -79 12 0 -4 -5 -8 -11 -8 -5 0 -7
5 -4 10 4 6 -9 10 -31 10 -74 0 -26 9 81 15 61 3 167 10 238 15 70 5 236 12
370 15 265 7 283 9 284 27 1 7 4 32 8 55 7 40 6 42 -19 49 -15 3 -117 1 -226
-6 -110 -7 -224 -13 -254 -14 -30 0 -52 -4 -49 -8 2 -5 -4 -7 -14 -6 -35 3
-54 -2 -48 -12 3 -6 -1 -7 -10 -4 -8 4 -21 2 -28 -4 -6 -6 -34 -13 -62 -16
l-50 -6 50 14 c100 26 191 68 277 125 49 32 91 55 94 49 3 -5 12 -7 20 -4 7 3
16 1 19 -5 4 -5 10 -7 14 -5 4 3 64 0 132 -5 206 -18 196 -18 218 12 12 15 32
53 45 83 35 78 107 186 160 241 62 62 152 105 251 120 44 7 82 11 85 9 3 -1
183 -5 400 -8z m-2023 -28 c-3 -8 -6 -5 -6 6 -1 11 2 17 5 13 3 -3 4 -12 1
-19z m-6667 -77 c19 -15 46 -34 60 -44 14 -9 51 -34 84 -57 32 -22 60 -40 62
-40 5 0 26 -16 57 -45 12 -11 26 -20 31 -20 5 0 11 -6 14 -12 6 -19 -8 -16
-44 12 -18 14 -37 25 -43 25 -6 0 -11 3 -11 8 0 4 -20 18 -45 32 -25 14 -45
28 -45 31 0 4 -10 9 -22 13 -13 3 -48 26 -78 51 -30 25 -58 45 -62 45 -11 0
-68 51 -68 61 0 10 61 -23 110 -60z m4277 47 c-3 -8 -6 -5 -6 6 -1 11 2 17 5
13 3 -3 4 -12 1 -19z m3308 -48 c-23 -45 -28 -32 -7 18 9 23 18 35 20 27 2 -7
-4 -28 -13 -45z m22 -12 c-3 -8 -6 -5 -6 6 -1 11 2 17 5 13 3 -3 4 -12 1 -19z
m-86 -105 c-20 -37 -66 -98 -59 -78 5 14 70 115 75 115 2 0 -6 -17 -16 -37z
m-4284 -220 c-3 -10 -5 -4 -5 12 0 17 2 24 5 18 2 -7 2 -21 0 -30z m-2728 -34
c2 -7 -10 -2 -27 10 -44 31 -53 50 -12 24 19 -12 36 -27 39 -34z m60 -44 c17
-20 31 -31 31 -25 0 6 5 8 11 4 8 -4 7 -9 -2 -15 -12 -7 -86 45 -88 64 -2 17
19 5 48 -28z m2569 -122 c-27 -2 -69 -2 -95 0 -27 2 -5 3 47 3 52 0 74 -1 48
-3z m144 -38 c3 -13 1 -22 -3 -19 -9 5 -13 44 -5 44 2 0 6 -11 8 -25z m1602
-51 c3 -8 2 -13 -3 -9 -5 3 -11 2 -14 -2 -2 -5 -2 -2 0 6 2 10 -7 12 -37 9
-22 -2 -40 0 -40 4 0 5 20 8 44 8 30 0 46 -5 50 -16z m476 0 c212 -3 440 -9
508 -13 68 -3 131 -3 140 0 9 4 20 1 24 -5 6 -8 8 -7 8 2 0 6 5 12 11 12 5 0
8 -3 6 -7 -5 -7 40 -9 68 -3 42 8 155 3 159 -7 3 -7 -1 -10 -9 -7 -10 4 -12
-1 -8 -18 4 -13 2 -20 -3 -15 -5 5 -10 13 -10 18 -3 22 -5 23 -14 9 -7 -11
-12 -12 -17 -4 -5 8 -16 8 -32 3 -19 -8 -21 -12 -11 -24 16 -19 7 -19 -32 1
-20 10 -28 11 -22 3 5 -9 2 -11 -9 -6 -8 3 -21 -1 -27 -9 -9 -10 -9 -14 -1
-14 6 0 11 5 11 11 0 5 5 7 11 3 19 -11 -12 -23 -43 -17 -15 3 -34 0 -41 -6
-8 -6 -17 -8 -20 -4 -4 3 -7 1 -7 -6 0 -7 -5 -9 -10 -6 -6 4 -8 11 -5 16 4 5
1 9 -4 9 -6 0 -11 -5 -11 -11 0 -8 -6 -7 -16 2 -14 11 -19 10 -35 -10 -14 -17
-19 -19 -19 -8 0 9 -4 19 -10 22 -5 3 -7 0 -4 -8 3 -8 -1 -17 -9 -20 -11 -4
-13 0 -10 16 4 17 2 19 -5 8 -6 -8 -17 -11 -27 -8 -9 4 -14 3 -11 -1 2 -4 -4
-9 -15 -9 -16 -2 -18 1 -10 11 9 11 6 15 -11 20 -13 3 -25 1 -26 -5 -3 -6 -9
-6 -18 2 -8 7 -14 7 -14 1 0 -5 -7 -13 -16 -16 -15 -6 -15 -4 -3 11 12 15 12
16 -4 10 -10 -4 -25 -7 -33 -7 -9 0 -12 -5 -8 -11 4 -8 0 -7 -15 1 -12 6 -19
15 -16 21 4 5 1 9 -4 9 -6 0 -11 -7 -11 -15 0 -18 -8 -18 -40 -1 -18 10 -30
11 -44 4 -15 -8 -18 -7 -13 5 4 11 2 14 -9 10 -9 -3 -12 -12 -8 -26 5 -17 4
-18 -9 -6 -8 8 -13 16 -12 19 2 3 -22 5 -53 5 -39 0 -56 4 -55 12 2 7 -4 10
-12 7 -8 -4 -12 -11 -9 -16 4 -6 1 -8 -7 -6 -8 3 -13 11 -11 17 3 15 -11 14
-26 -1 -7 -7 -12 -8 -12 -2 0 5 -13 9 -30 9 -16 0 -30 -3 -30 -7 0 -4 -12 -2
-26 4 -21 10 -27 9 -35 -3 -7 -12 -9 -11 -9 2 0 9 -9 19 -20 22 -11 3 -20 0
-20 -5 0 -6 -6 -5 -15 2 -14 11 -19 7 -16 -12 0 -4 -6 -5 -14 -2 -18 7 -19 21
-2 27 6 3 2 4 -10 4 -12 -1 -20 -4 -17 -8 2 -4 -3 -12 -11 -19 -13 -11 -14
-10 -10 3 4 8 2 18 -4 22 -6 3 -11 1 -11 -6 0 -8 -4 -8 -15 1 -12 10 -15 9
-16 -6 0 -14 -2 -15 -6 -4 -7 17 -23 30 -38 30 -5 0 -3 -4 5 -10 8 -5 12 -11
9 -14 -3 -3 -15 6 -28 20 l-22 25 33 -5 c18 -3 206 -8 418 -12z m1297 10 c-3
-3 -12 -4 -19 -1 -8 3 -5 6 6 6 11 1 17 -2 13 -5z m-2722 -14 c-3 -5 -13 -10
-21 -10 -8 0 -14 5 -14 10 0 6 9 10 21 10 11 0 17 -4 14 -10z m68 3 c-7 -2
-21 -2 -30 0 -10 3 -4 5 12 5 17 0 24 -2 18 -5z m164 1 c-7 -7 -138 -6 -145 1
-3 3 30 5 73 5 43 0 75 -3 72 -6z m68 -1 c-11 -3 -23 -10 -26 -15 -3 -5 -12
-2 -19 7 -11 13 -8 15 26 14 22 -1 30 -3 19 -6z m52 1 c-3 -3 -12 -4 -19 -1
-8 3 -5 6 6 6 11 1 17 -2 13 -5z m66 -1 c-7 -2 -21 -2 -30 0 -10 3 -4 5 12 5
17 0 24 -2 18 -5z m37 3 c0 -3 -4 -8 -10 -11 -5 -3 -10 -1 -10 4 0 6 5 11 10
11 6 0 10 -2 10 -4z m100 -6 c0 -5 -2 -10 -4 -10 -3 0 -8 5 -11 10 -3 6 -1 10
4 10 6 0 11 -4 11 -10z m-643 -6 c-3 -3 -12 -4 -19 -1 -8 3 -5 6 6 6 11 1 17
-2 13 -5z m1073 2 c0 -3 -4 -8 -10 -11 -5 -3 -10 -1 -10 4 0 6 5 11 10 11 6 0
10 -2 10 -4z m-3360 -15 c0 -6 -5 -13 -12 -17 -6 -4 -8 -3 -4 4 3 6 -2 13 -11
15 -14 4 -13 5 5 6 12 0 22 -3 22 -8z m125 -11 c10 -11 16 -20 13 -20 -3 0
-13 9 -23 20 -10 11 -16 20 -13 20 3 0 13 -9 23 -20z m235 10 c0 -5 -4 -10
-10 -10 -5 0 -10 5 -10 10 0 6 5 10 10 10 6 0 10 -4 10 -10z m2180 0 c0 -5 -2
-10 -4 -10 -3 0 -8 5 -11 10 -3 6 -1 10 4 10 6 0 11 -4 11 -10z m173 3 c-7 -2
-21 -2 -30 0 -10 3 -4 5 12 5 17 0 24 -2 18 -5z m2973 -8 c17 -16 14 -18 -10
-9 -9 3 -16 10 -16 15 0 13 9 11 26 -6z m834 5 c0 -5 -2 -10 -4 -10 -3 0 -8 5
-11 10 -3 6 -1 10 4 10 6 0 11 -4 11 -10z m-5867 -14 c4 -10 1 -13 -9 -9 -7 3
-14 9 -14 14 0 14 17 10 23 -5z m2202 4 c3 -5 2 -10 -4 -10 -5 0 -13 5 -16 10
-3 6 -2 10 4 10 5 0 13 -4 16 -10z m2920 -8 c-3 -3 -11 0 -18 7 -9 10 -8 11 6
5 10 -3 15 -9 12 -12z m-4625 -12 c0 -5 -4 -10 -10 -10 -5 0 -10 5 -10 10 0 6
5 10 10 10 6 0 10 -4 10 -10z m95 1 c3 -5 2 -12 -3 -15 -5 -3 -9 1 -9 9 0 17
3 19 12 6z m3142 -55 c0 -8 -6 -12 -14 -9 -7 3 -10 9 -7 14 8 14 21 11 21 -5z
m123 10 c0 -2 -7 -7 -16 -10 -8 -3 -12 -2 -9 4 6 10 25 14 25 6z m1560 -746
c83 -23 119 -38 83 -35 -10 0 -24 5 -32 9 -8 5 -17 3 -22 -5 -7 -12 -9 -12 -9
0 0 8 -6 11 -16 7 -10 -4 -13 -2 -8 6 5 8 2 9 -12 3 -31 -13 -125 -15 -118 -3
4 7 2 8 -5 4 -6 -4 -8 -13 -4 -19 4 -8 1 -7 -9 1 -14 11 -22 10 -50 -4 -26
-13 -30 -14 -21 -2 19 23 -21 17 -48 -8 -22 -19 -22 -19 -10 4 6 12 9 22 7 22
-3 0 -15 -10 -26 -22 -16 -18 -20 -19 -14 -5 6 16 4 16 -20 6 -20 -9 -29 -9
-41 1 -12 10 -15 10 -15 -3 0 -9 -4 -19 -10 -22 -6 -3 -7 1 -4 9 7 17 -11 22
-21 7 -3 -5 -18 -9 -33 -9 -15 1 -38 -5 -51 -11 -16 -9 -26 -10 -33 -3 -11 11
-58 -5 -58 -20 0 -4 -5 -8 -12 -8 -9 0 -9 3 0 12 19 19 14 33 -6 15 -10 -10
-21 -14 -24 -11 -4 3 -16 0 -28 -6 -12 -7 -20 -8 -17 -2 9 14 -104 4 -119 -11
-4 -3 -11 -4 -17 0 -17 10 -71 10 -84 0 -7 -5 -24 -7 -38 -5 -14 3 -25 2 -25
-2 0 -4 -18 -12 -39 -18 -32 -8 -38 -7 -34 4 7 19 -6 18 -29 -2 -14 -14 -20
-14 -33 -4 -13 10 -19 10 -33 -4 -23 -20 -32 -20 -32 1 0 14 -3 14 -22 -4 -31
-27 -59 -37 -51 -17 6 17 -1 18 -28 4 -13 -7 -19 -7 -19 0 0 5 -4 10 -10 10
-5 0 -6 -8 -3 -17 6 -16 5 -16 -10 -4 -9 7 -17 9 -17 4 0 -5 -23 -9 -50 -8
-28 1 -53 -2 -56 -7 -3 -4 -11 -8 -17 -8 -7 0 -6 4 3 11 12 9 11 9 -5 3 -11
-4 -49 -8 -85 -9 -36 0 -71 -4 -77 -8 -7 -4 -21 -3 -31 2 -11 6 -23 7 -27 3
-3 -4 -30 -8 -58 -9 -77 -4 -87 -5 -87 -17 0 -5 -6 -1 -14 9 -11 16 -17 17
-29 7 -10 -8 -16 -9 -19 -3 -2 7 -14 5 -32 -4 -33 -18 -50 -19 -41 -5 4 7 -3
9 -22 6 -15 -2 -28 -5 -28 -6 0 -7 -53 -5 -62 2 -10 8 -13 5 -13 -8 -1 -18 -1
-18 -15 0 -15 19 -15 19 -15 1 0 -14 -3 -16 -11 -8 -6 6 -18 9 -26 6 -8 -3
-19 0 -24 8 -8 11 -9 10 -7 -5 2 -10 -3 -21 -10 -23 -8 -3 -10 1 -5 12 5 15 3
16 -14 7 -11 -6 -41 -9 -67 -6 -29 3 -53 1 -62 -7 -10 -8 -18 -9 -27 0 -8 6
-16 8 -19 6 -9 -10 -158 -13 -158 -3 0 5 -8 4 -19 -1 -11 -7 -30 -7 -50 -1
-22 6 -29 6 -25 -2 5 -8 1 -9 -12 -4 -10 5 -23 8 -29 7 -53 -7 -91 -6 -97 3
-5 7 -8 7 -8 -2 0 -7 -5 -10 -10 -7 -6 4 -17 2 -25 -5 -10 -8 -15 -8 -20 0 -4
6 -13 9 -21 6 -8 -3 -14 0 -14 7 0 8 -3 8 -9 -2 -5 -7 -13 -11 -19 -7 -6 3
-22 2 -36 -4 -22 -8 -26 -7 -26 7 0 13 -3 14 -12 5 -14 -14 -52 -16 -43 -2 3
5 -1 10 -10 10 -9 0 -14 -4 -10 -9 3 -5 -8 -9 -25 -9 -16 1 -30 4 -30 9 0 4
-9 5 -20 2 -11 -3 -27 0 -35 7 -8 6 -18 9 -24 6 -5 -3 -12 0 -15 6 -3 7 -3 3
0 -9 5 -23 -9 -32 -21 -12 -4 6 -13 8 -21 5 -7 -3 -16 -1 -19 4 -8 12 -68 8
-77 -5 -5 -6 -11 -5 -17 4 -8 13 -12 13 -27 0 -16 -12 -17 -12 -12 1 4 11 -2
15 -18 16 -13 1 -24 -1 -24 -5 0 -10 -32 -10 -45 -1 -5 4 -19 10 -29 14 -17 6
-17 5 -5 -10 13 -16 12 -16 -6 -7 -11 6 -31 10 -45 9 -14 -1 -29 0 -35 3 -18
10 -65 9 -71 -1 -3 -5 -14 -2 -25 8 -12 11 -19 13 -19 5 0 -9 -5 -9 -21 -1
-11 7 -23 9 -26 6 -3 -2 -16 0 -30 5 -17 6 -30 6 -38 -1 -8 -7 -16 -7 -19 -2
-3 6 -23 8 -43 6 -24 -2 -43 2 -55 13 -10 9 -18 11 -18 6 0 -19 -29 -23 -46
-6 -12 13 -18 13 -24 4 -6 -10 -9 -10 -15 -1 -4 6 -14 9 -23 5 -8 -3 -19 0
-24 7 -5 9 -8 7 -8 -7 -1 -17 -2 -18 -13 -5 -7 8 -22 15 -35 16 -18 0 -21 -3
-16 -20 6 -21 6 -21 -10 0 -10 15 -24 20 -43 18 -15 -1 -31 3 -35 9 -6 9 -8 9
-8 0 0 -7 -4 -13 -10 -13 -5 0 -7 6 -4 14 3 8 1 17 -5 21 -6 3 -11 -1 -11 -9
0 -9 -5 -16 -11 -16 -6 0 -8 7 -5 16 6 14 4 15 -10 4 -13 -12 -17 -11 -25 1
-7 11 -9 11 -9 -3 0 -21 -16 -24 -23 -5 -3 9 -7 9 -20 -2 -15 -12 -17 -11 -17
12 l0 25 233 -3 c237 -3 571 -14 641 -20 63 -6 601 -18 841 -18 301 -1 913 21
1070 39 17 2 63 4 102 5 40 0 71 4 69 8 -4 6 27 9 131 14 24 1 43 4 43 7 0 3
19 5 43 5 23 -1 56 2 72 6 17 4 68 10 115 13 47 4 103 9 125 12 58 7 118 13
215 19 47 4 119 10 160 14 41 5 115 9 165 10 49 1 90 3 91 4 10 10 217 -15
284 -33z m-160 -35 c0 -2 -10 -10 -22 -16 -21 -11 -22 -11 -9 4 13 16 31 23
31 12z m-4382 -65 c-7 -11 -14 -16 -16 -10 -2 5 -14 7 -27 4 -13 -3 -26 0 -30
6 -5 8 -2 10 11 6 11 -3 26 -1 34 4 28 18 42 13 28 -10z m129 7 c3 -4 3 -10
-1 -14 -4 -4 -12 -1 -17 7 -8 11 -9 10 -4 -7 4 -15 2 -23 -5 -23 -7 0 -14 9
-17 20 -5 20 -6 20 -26 3 -18 -16 -20 -16 -14 -1 4 13 2 15 -10 11 -11 -4 -14
-2 -9 5 7 12 91 10 103 -1z m-257 -7 c0 -5 -4 -10 -10 -10 -5 0 -10 5 -10 10
0 6 5 10 10 10 6 0 10 -4 10 -10z m3570 -51 c0 -6 -4 -7 -10 -4 -5 3 -10 11
-10 16 0 6 5 7 10 4 6 -3 10 -11 10 -16z m-2945 -9 c3 -5 1 -10 -4 -10 -6 0
-11 5 -11 10 0 6 2 10 4 10 3 0 8 -4 11 -10z m895 -60 c0 -5 -4 -10 -10 -10
-5 0 -10 5 -10 10 0 6 5 10 10 10 6 0 10 -4 10 -10z"/>
<path d="M2110 8230 c0 -5 11 -10 25 -10 14 0 25 5 25 10 0 6 -11 10 -25 10
-14 0 -25 -4 -25 -10z"/>
<path d="M7150 7490 c0 -5 5 -10 10 -10 6 0 10 5 10 10 0 6 -4 10 -10 10 -5 0
-10 -4 -10 -10z"/>
<path d="M7200 7490 c0 -5 4 -10 9 -10 6 0 13 5 16 10 3 6 -1 10 -9 10 -9 0
-16 -4 -16 -10z"/>
<path d="M6370 7375 c0 -8 5 -15 10 -15 6 0 10 7 10 15 0 8 -4 15 -10 15 -5 0
-10 -7 -10 -15z"/>
<path d="M6330 7370 c0 -5 5 -10 10 -10 6 0 10 5 10 10 0 6 -4 10 -10 10 -5 0
-10 -4 -10 -10z"/>
<path d="M3150 7192 l0 -92 80 0 80 0 0 70 c0 60 -2 70 -17 69 -11 0 -13 -3
-5 -6 6 -2 12 -11 12 -19 0 -9 -5 -12 -12 -8 -6 4 -8 3 -5 -3 4 -6 1 -22 -6
-37 -10 -22 -16 -25 -42 -20 -31 6 -63 38 -66 64 -1 8 -3 25 -4 38 -1 12 -5
25 -9 29 -3 3 -6 -35 -6 -85z"/>
<path d="M3308 7273 c6 -2 18 -2 25 0 6 3 1 5 -13 5 -14 0 -19 -2 -12 -5z"/>
<path d="M3528 7273 c7 -3 16 -2 19 1 4 3 -2 6 -13 5 -11 0 -14 -3 -6 -6z"/>
<path d="M3814 7255 c-6 -25 -24 -35 -24 -13 0 6 -2 9 -5 7 -2 -3 -2 -15 2
-28 4 -17 8 -19 14 -9 6 9 9 9 9 1 0 -7 -8 -17 -19 -22 -10 -6 -21 -18 -25
-28 -6 -17 -5 -17 8 -1 12 16 13 15 12 -11 -1 -17 -6 -27 -13 -24 -6 2 -13 -1
-16 -9 -2 -7 -3 -5 -2 4 4 27 -13 32 -18 6 -2 -13 -3 -8 -1 10 1 18 -1 30 -6
27 -4 -3 -18 9 -31 26 -58 75 -59 74 -23 -26 20 -55 41 -115 47 -132 6 -18 13
-33 17 -33 9 0 63 120 91 202 17 50 28 68 43 71 20 4 20 4 -1 6 -15 1 -28 -8
-38 -26 l-16 -28 6 28 c7 34 -2 36 -11 2z"/>
<path d="M5440 7229 c0 -5 5 -7 10 -4 6 3 10 8 10 11 0 2 -4 4 -10 4 -5 0 -10
-5 -10 -11z"/>
<path d="M4080 7210 c0 -5 10 -10 23 -10 18 0 19 2 7 10 -19 13 -30 13 -30 0z"/>
<path d="M3760 7195 c-7 -9 -11 -17 -9 -20 3 -2 10 5 17 15 14 24 10 26 -8 5z"/>
<path d="M2130 5730 c0 -5 7 -10 15 -10 8 0 15 5 15 10 0 6 -7 10 -15 10 -8 0
-15 -4 -15 -10z"/>
<path d="M2313 3733 c-18 -7 -16 -23 2 -23 8 0 15 7 15 15 0 8 -1 15 -2 14 -2
0 -9 -3 -15 -6z"/>
<path d="M2340 3450 c0 -5 5 -10 11 -10 5 0 7 5 4 10 -3 6 -8 10 -11 10 -2 0
-4 -4 -4 -10z"/>
<path d="M2352 3400 c0 -14 2 -19 5 -12 2 6 2 18 0 25 -3 6 -5 1 -5 -13z"/>
<path d="M620 7347 c-3 -3 -18 -7 -35 -10 -41 -5 -64 -16 -105 -46 -19 -14
-38 -26 -41 -26 -4 0 -23 -17 -42 -37 -19 -20 -37 -34 -41 -31 -3 4 -6 -1 -6
-11 0 -9 -7 -19 -15 -22 -16 -7 -17 -14 -18 -144 -1 -100 18 -152 79 -216 69
-72 126 -99 227 -111 60 -6 187 20 187 38 0 5 11 14 25 19 14 5 28 17 31 25 4
8 12 15 20 15 8 0 14 7 14 15 0 8 4 15 9 15 5 0 20 19 34 43 44 75 54 194 21
261 -8 16 -14 35 -14 43 0 18 -99 123 -115 123 -7 0 -16 7 -19 16 -3 8 -10 13
-15 10 -5 -3 -23 1 -40 10 -31 16 -132 31 -141 21z m147 -103 c24 -26 43 -51
43 -56 0 -6 14 -39 31 -74 43 -91 47 -124 17 -151 -23 -21 -52 -33 -246 -101
-77 -28 -107 -34 -120 -26 -25 15 -68 109 -83 181 -11 55 -11 67 4 98 9 19 23
35 32 35 8 0 20 9 27 20 7 11 16 20 21 20 4 0 34 16 65 37 123 78 150 80 209
17z"/>
<path d="M4535 5784 c9 -9 18 -14 21 -11 9 9 -6 27 -22 27 -13 0 -13 -2 1 -16z"/>
<path d="M6039 5553 c-53 -37 -64 -75 -27 -94 16 -9 23 -9 26 0 2 6 9 11 16
11 17 0 46 33 46 52 0 8 -8 22 -18 31 -17 15 -20 15 -43 0z"/>
<path d="M5173 5533 c-10 -15 -26 -36 -35 -45 -24 -24 -33 -65 -18 -83 7 -8
25 -15 41 -15 16 0 49 -5 74 -12 39 -11 47 -10 62 5 20 20 22 76 3 111 -11 22
-81 66 -103 66 -4 0 -15 -12 -24 -27z"/>
<path d="M4925 5540 c-3 -5 -16 -10 -28 -11 -21 0 -21 -1 3 -10 14 -6 42 -26
63 -47 42 -41 47 -32 15 33 -21 43 -40 56 -53 35z"/>
<path d="M5720 5485 c0 -7 -6 -16 -12 -19 -8 -4 -9 -8 -3 -11 83 -41 80 -39
130 -118 9 -14 13 -13 39 7 28 23 28 25 21 90 -7 70 -21 84 -48 46 -13 -19
-16 -19 -30 -6 -8 8 -17 13 -20 10 -3 -3 -21 -1 -41 4 -28 8 -36 8 -36 -3z"/>
<path d="M4770 5475 c-8 -8 -32 -30 -52 -49 -40 -35 -51 -69 -20 -60 9 2 7 -1
-5 -7 -22 -11 -32 -30 -15 -28 19 3 23 -2 12 -16 -7 -8 -15 -13 -19 -11 -4 3
-8 -4 -8 -15 -1 -10 3 -19 9 -19 6 0 8 3 5 6 -9 10 36 43 80 59 24 8 31 14 18
14 -15 1 -17 3 -6 10 11 7 10 11 -5 20 -18 11 -18 12 -1 25 10 8 21 30 24 50
6 40 4 43 -17 21z m-50 -135 c8 -5 11 -10 5 -10 -5 0 -17 5 -25 10 -8 5 -10
10 -5 10 6 0 17 -5 25 -10z"/>
<path d="M4352 5392 c-14 -43 -96 -139 -106 -123 -12 18 -26 12 -26 -11 0 -12
-7 -30 -17 -40 -15 -17 -14 -18 21 -18 56 0 95 -25 117 -74 l19 -44 40 20 c44
22 47 29 24 53 -14 13 -16 35 -13 133 3 72 0 118 -6 120 -5 2 -17 8 -26 13
-13 6 -18 1 -27 -29z"/>
<path d="M5407 5397 c13 -16 14 -57 2 -57 -5 0 -9 -5 -9 -12 0 -6 -7 -20 -17
-30 -9 -11 -11 -18 -5 -18 7 0 12 3 12 8 0 14 98 62 128 62 21 0 35 8 48 28
11 17 13 23 3 16 -22 -16 -81 -16 -128 1 -31 11 -41 11 -34 2z"/>
<path d="M6516 5373 c-6 -14 -5 -15 5 -6 7 7 10 15 7 18 -3 3 -9 -2 -12 -12z"/>
<path d="M6636 5071 c-4 -7 -5 -15 -2 -18 9 -9 19 4 14 18 -4 11 -6 11 -12 0z"/>
<path d="M5055 5006 c16 -24 16 -28 1 -50 -14 -23 -20 -24 -73 -19 -32 3 -66
10 -75 14 -29 16 -58 11 -51 -8 5 -12 3 -14 -7 -8 -9 6 -11 4 -5 -5 4 -7 2
-16 -6 -21 -12 -8 -12 -11 1 -20 12 -8 11 -9 -5 -5 -11 3 -27 1 -35 -4 -13 -8
-12 -12 8 -25 24 -18 62 -84 62 -110 0 -14 3 -14 25 3 38 30 111 47 141 33 20
-9 26 -8 30 4 4 8 10 13 14 10 5 -3 12 0 16 6 4 8 3 9 -4 5 -20 -12 -14 46 8
81 10 18 31 39 45 49 26 17 34 57 13 70 -6 4 -27 7 -46 6 -19 -1 -43 3 -54 9
-19 10 -19 10 -3 -15z"/>
<path d="M3700 4767 c0 -23 -4 -36 -10 -32 -5 3 -10 1 -10 -4 0 -6 -7 -11 -16
-11 -10 0 -14 -7 -12 -22 2 -17 14 -25 47 -35 25 -7 58 -25 75 -40 l30 -28
-17 28 c-10 15 -16 27 -15 28 2 1 20 2 41 3 43 3 62 22 44 45 -8 10 -8 13 -1
8 17 -10 25 19 14 45 -5 13 -9 18 -9 12 -1 -14 -83 -28 -111 -19 -11 4 -27 18
-35 33 l-14 27 -1 -38z"/>
<path d="M3618 4673 c7 -3 16 -2 19 1 4 3 -2 6 -13 5 -11 0 -14 -3 -6 -6z"/>
<path d="M4346 4560 c-24 -78 -42 -101 -78 -93 -15 3 -25 9 -22 14 3 5 -4 9
-15 9 -11 0 -23 -4 -26 -10 -3 -6 2 -8 12 -5 10 3 8 0 -5 -6 -20 -11 -26 -9
-52 16 -36 35 -40 19 -5 -19 27 -29 32 -42 13 -30 -7 5 -9 2 -5 -8 4 -12 -5
-19 -41 -28 -33 -8 -42 -14 -32 -20 9 -6 17 -5 21 2 4 7 9 7 13 0 3 -6 3 -13
-1 -15 -10 -6 -59 -1 -72 8 -6 3 -11 2 -11 -3 0 -5 11 -15 25 -22 19 -10 30
-11 50 -2 19 9 32 9 46 2 11 -6 56 -27 101 -46 80 -34 80 -34 64 -9 -16 24
-15 25 13 40 37 19 75 20 68 2 -10 -26 38 -12 98 29 87 58 140 79 205 79 53 0
56 1 52 22 -3 16 0 23 11 23 8 0 17 4 19 8 2 4 20 21 41 36 23 18 37 36 37 50
-1 19 -2 19 -15 -6 -14 -24 -48 -45 -67 -40 -5 1 -8 -5 -8 -13 0 -18 -17 -20
-23 -2 -3 9 -7 9 -20 -2 -14 -11 -18 -11 -23 3 -5 12 -10 14 -19 6 -10 -8 -16
-7 -24 7 -9 17 -10 17 -16 -2 -14 -43 -29 -65 -44 -65 -11 0 -10 -3 5 -15 22
-17 12 -20 -18 -4 -15 8 -19 8 -14 0 4 -6 2 -11 -4 -11 -6 0 -9 -4 -6 -9 3 -5
-2 -11 -12 -13 -20 -6 -62 23 -62 43 0 8 -7 6 -20 -6 -11 -10 -23 -15 -27 -12
-3 4 -1 7 5 7 15 0 15 27 0 36 -7 4 -8 3 -4 -4 4 -7 3 -12 -2 -12 -5 0 -10 27
-10 60 -1 66 -15 90 -54 90 -21 0 -27 -8 -42 -60z"/>
<path d="M5170 4591 c0 -6 4 -11 9 -11 5 0 11 -14 15 -32 5 -24 9 -29 18 -20
7 7 21 12 33 13 18 0 17 1 -5 10 -13 6 -27 13 -30 17 -14 19 -40 34 -40 23z"/>
<path d="M5230 4576 c0 -9 5 -16 10 -16 6 0 10 4 10 9 0 6 -4 13 -10 16 -5 3
-10 -1 -10 -9z"/>
<path d="M5720 4560 c-9 -6 -10 -10 -3 -10 6 0 15 5 18 10 8 12 4 12 -15 0z"/>
<path d="M5126 4475 c-37 -34 -38 -35 -13 -35 32 0 91 -25 144 -61 23 -16 48
-29 55 -29 7 0 4 6 -7 12 -11 6 -23 15 -26 20 -3 6 -9 9 -13 9 -4 -1 -21 10
-40 24 -18 14 -39 25 -47 25 -8 1 0 7 16 15 25 11 27 14 10 16 -11 1 -28 1
-39 0 -15 -1 -16 1 -7 13 7 8 19 12 27 9 8 -3 14 0 14 6 0 22 -37 10 -74 -24z"/>
<path d="M4795 4430 c27 -12 43 -12 25 0 -8 5 -22 9 -30 9 -10 0 -8 -3 5 -9z"/>
<path d="M5011 4425 c-18 -8 -38 -12 -44 -8 -5 3 -7 2 -4 -4 4 -6 -9 -18 -28
-28 -29 -16 -36 -17 -52 -5 -17 13 -17 13 -1 -5 17 -19 20 -18 93 20 41 21 75
40 75 42 0 4 -1 4 -39 -12z"/>
<path d="M6865 3919 c-12 -18 4 -59 23 -59 16 1 16 1 0 11 -10 5 -18 19 -18
30 0 13 4 18 12 13 7 -4 8 -3 4 4 -9 15 -13 15 -21 1z"/>
<path d="M6711 3804 c0 -11 3 -14 6 -6 3 7 2 16 -1 19 -3 4 -6 -2 -5 -13z"/>
<path d="M6662 3750 c0 -14 2 -19 5 -12 2 6 2 18 0 25 -3 6 -5 1 -5 -13z"/>
<path d="M6690 3750 c0 -5 5 -10 10 -10 6 0 10 5 10 10 0 6 -4 10 -10 10 -5 0
-10 -4 -10 -10z"/>
<path d="M6441 3654 c0 -11 3 -14 6 -6 3 7 2 16 -1 19 -3 4 -6 -2 -5 -13z"/>
<path d="M6428 3594 c-5 -4 -8 -16 -8 -28 0 -14 3 -17 11 -9 6 6 9 19 7 28 -1
9 -6 13 -10 9z"/>
<path d="M3571 3344 c0 -11 3 -14 6 -6 3 7 2 16 -1 19 -3 4 -6 -2 -5 -13z"/>
<path d="M6001 3164 c0 -11 3 -14 6 -6 3 7 2 16 -1 19 -3 4 -6 -2 -5 -13z"/>
<path d="M631 5808 c-1 -9 -4 -23 -7 -32 -5 -13 1 -16 28 -16 27 0 34 4 35 20
1 15 -4 20 -22 20 -13 0 -26 6 -28 13 -4 7 -6 6 -6 -5z"/>
<path d="M6542 4959 c-7 -10 -12 -26 -12 -35 0 -12 -6 -15 -24 -10 -15 4 -28
0 -36 -9 -7 -8 -9 -15 -4 -15 5 0 0 -7 -10 -15 -22 -17 -22 -16 21 -38 31 -15
34 -14 50 7 23 29 60 39 67 19 9 -22 7 -30 -3 -14 -7 12 -15 8 -41 -17 l-31
-31 26 -7 c19 -5 23 -10 15 -18 -7 -9 -5 -13 5 -13 8 0 15 4 15 9 0 5 4 7 9 4
16 -10 41 5 41 24 0 10 -6 21 -12 23 -8 3 -6 6 5 6 14 1 16 7 11 29 -4 15 -11
34 -16 42 -6 11 -7 8 -3 -8 6 -21 5 -22 -14 -10 -25 15 -26 24 -6 32 8 3 15
11 15 17 0 7 -8 5 -20 -6 -11 -10 -20 -13 -20 -7 0 6 6 12 13 15 8 3 6 11 -9
25 -20 19 -21 19 -32 1z m24 -26 c-3 -8 -2 -22 3 -31 7 -14 4 -17 -15 -18 -27
-2 -31 11 -9 32 8 8 11 22 8 31 -4 11 -3 14 6 9 7 -5 10 -15 7 -23z m24 -117
c0 -2 -9 -6 -20 -9 -11 -3 -18 -1 -14 4 5 9 34 13 34 5z"/>
<path d="M6345 2020 c-3 -5 -1 -10 4 -10 6 0 11 5 11 10 0 6 -2 10 -4 10 -3 0
-8 -4 -11 -10z"/>
<path d="M6205 1980 c-3 -5 -1 -10 4 -10 6 0 11 5 11 10 0 6 -2 10 -4 10 -3 0
-8 -4 -11 -10z"/>
<path d="M2080 2474 c0 -3 7 -12 15 -20 8 -9 15 -24 15 -35 0 -10 7 -19 15
-19 12 0 13 4 5 19 -5 11 -10 29 -10 40 0 14 -6 21 -20 21 -11 0 -20 -3 -20
-6z"/>
<path d="M1990 2066 c0 -2 8 -10 18 -17 15 -13 16 -12 3 4 -13 16 -21 21 -21
13z"/>
<path d="M1317 1709 c7 -7 15 -10 18 -7 3 3 -2 9 -12 12 -14 6 -15 5 -6 -5z"/>
<path d="M9051 1557 c-13 -21 -12 -21 5 -5 10 10 16 20 13 22 -3 3 -11 -5 -18
-17z"/>
</g>
</svg>
